<?xml version="1.0" standalone="no"?>
<!DOCTYPE svg PUBLIC "-//W3C//DTD SVG 20010904//EN"
 "http://www.w3.org/TR/2001/REC-SVG-20010904/DTD/svg10.dtd">
<svg version="1.0" xmlns="http://www.w3.org/2000/svg"
 width="1024.000000pt" height="1024.000000pt" viewBox="0 0 1024.000000 1024.000000"
 preserveAspectRatio="xMidYMid meet">

<g transform="translate(0.000000,1024.000000) scale(0.100000,-0.100000)"
fill="#000000" stroke="none">
<path d="M2545 9399 c-389 -38 -731 -181 -1032 -433 -295 -246 -514 -588 -613
-958 -66 -248 -62 -51 -60 -2873 0 -1616 4 -2591 11 -2645 24 -213 79 -400
174 -595 104 -213 209 -358 387 -531 243 -237 515 -391 834 -474 225 -58 38
-54 2449 -54 l2210 -1 -2125 5 c-1169 3 -2112 6 -2096 8 16 1 39 10 50 19 20
17 20 17 6 0 -13 -18 -12 -18 20 -14 18 3 36 10 39 15 7 10 39 8 49 -4 4 -4
-1 -4 -11 -1 -11 4 -16 3 -12 -3 11 -17 53 -11 59 8 4 10 14 19 22 19 15 0 15
-1 0 -12 -15 -11 -14 -13 8 -17 21 -4 23 -2 17 16 -5 11 -19 23 -31 26 -13 3
-26 12 -28 20 -5 13 -3 13 13 0 11 -9 16 -10 11 -3 -4 7 -2 13 3 13 6 0 11 -5
11 -10 0 -6 12 -8 26 -6 21 4 23 2 14 -9 -8 -10 -8 -15 1 -21 8 -4 9 -3 5 4
-5 8 2 11 21 8 15 -2 22 -1 15 1 -21 7 29 38 55 35 13 -2 23 2 23 8 0 6 5 8
10 5 6 -4 7 -11 4 -17 -4 -6 -2 -8 4 -4 6 3 9 15 7 26 -2 12 5 26 18 35 14 10
16 15 7 15 -9 0 -6 6 8 16 12 8 22 24 22 34 0 16 4 15 32 -10 l32 -30 21 20
c12 11 26 20 33 20 6 0 14 4 17 10 4 7 -2 7 -18 1 -14 -6 -28 -7 -32 -3 -4 4
-5 3 -3 -3 1 -5 -1 -10 -7 -10 -5 0 -10 7 -10 15 -1 24 27 61 41 56 7 -3 16
-1 19 4 4 6 1 10 -5 10 -6 0 -8 4 -5 10 3 6 -1 7 -9 4 -15 -6 -21 6 -17 30 1
5 -6 17 -16 28 -16 17 -16 18 0 12 10 -3 20 -17 23 -30 3 -13 13 -24 21 -24 8
0 11 5 7 12 -4 7 -3 8 4 4 6 -4 9 -13 5 -21 -3 -8 -1 -15 5 -15 5 0 13 7 16
16 5 13 9 14 21 4 13 -11 13 -14 -2 -26 -20 -15 -6 -19 16 -5 7 5 11 13 7 19
-3 6 1 15 10 20 15 8 15 10 -1 15 -25 10 -7 28 23 23 25 -5 25 -4 9 8 -15 12
-23 12 -48 -1 -16 -8 -27 -18 -24 -23 3 -5 1 -11 -5 -15 -5 -3 -10 -1 -10 4 0
6 -7 11 -15 11 -8 0 -15 5 -15 11 0 6 7 9 15 6 8 -4 17 -1 21 5 5 7 2 8 -6 3
-9 -5 -11 -4 -6 3 4 7 18 12 32 12 13 0 23 5 22 12 -2 6 5 14 15 16 9 2 17 -2
17 -8 0 -6 -6 -8 -12 -4 -10 5 -10 3 0 -7 11 -12 14 -12 22 1 13 20 13 33 0
25 -5 -3 -10 -1 -10 5 0 6 -4 8 -10 5 -6 -3 -10 -2 -10 4 0 5 6 12 13 14 7 3
5 6 -5 6 -10 1 -18 -5 -18 -13 0 -8 -4 -18 -10 -21 -6 -4 -9 3 -7 16 1 12 -4
24 -13 26 -13 4 -13 3 0 -7 12 -10 12 -11 -5 -5 -11 4 -27 8 -34 9 -8 2 -17 9
-19 17 -2 8 0 10 5 4 11 -14 47 -19 38 -6 -4 8 2 8 20 1 26 -10 82 -13 58 -3
-20 8 -15 23 7 23 11 0 20 7 20 15 0 8 -4 15 -10 15 -5 0 -10 -4 -10 -10 0 -5
-9 -10 -20 -10 -11 0 -20 5 -20 11 0 5 4 8 9 5 5 -3 14 1 21 9 6 7 18 11 26 8
8 -3 14 0 14 7 0 6 -5 8 -11 4 -7 -4 -10 -1 -7 6 2 8 14 14 26 15 11 1 19 -2
16 -6 -2 -4 4 -10 13 -12 15 -4 14 -6 -5 -12 -18 -6 -20 -10 -10 -16 10 -7 9
-9 -5 -9 -10 0 -15 -5 -12 -10 4 -6 11 -8 16 -5 5 4 9 -1 9 -9 0 -8 4 -17 9
-20 5 -4 8 2 6 11 -1 10 4 26 13 35 10 12 11 18 3 18 -7 0 -9 5 -6 11 5 7 13
4 26 -7 10 -9 16 -22 12 -28 -4 -6 1 -5 9 2 10 8 14 20 11 30 -6 14 -4 15 8 5
10 -8 19 -9 29 -1 12 8 11 9 -3 4 -13 -4 -20 0 -24 14 -4 16 -8 18 -19 9 -8
-6 -21 -9 -29 -5 -8 3 -15 1 -15 -5 0 -6 -4 -7 -10 -4 -5 3 -10 14 -9 23 0 9
3 12 5 5 4 -9 15 -8 44 2 21 7 41 11 44 8 3 -4 6 -1 6 5 0 7 -7 12 -16 12 -9
0 -12 5 -8 11 4 7 1 10 -7 7 -8 -3 -13 -11 -11 -17 1 -7 -2 -10 -7 -7 -12 8
-9 26 9 52 13 18 17 19 28 8 7 -8 12 -16 11 -19 0 -3 2 -10 4 -16 3 -5 4 -4 3
3 -2 7 3 25 11 41 10 20 11 32 3 45 -9 14 -10 13 -4 -8 5 -20 4 -23 -6 -13 -7
7 -10 19 -6 30 13 32 38 -14 32 -57 -4 -27 -4 -30 3 -14 13 31 35 43 26 15 -3
-12 -2 -21 4 -21 5 0 8 13 6 30 -4 30 8 41 19 18 3 -7 4 -4 1 8 -5 18 -2 20
25 16 17 -2 30 -10 30 -18 0 -8 4 -14 9 -14 16 0 20 15 10 30 -5 8 -9 11 -9 7
0 -4 -8 -4 -17 1 -16 10 -26 62 -11 62 4 0 8 5 8 11 0 8 -4 8 -14 0 -22 -18
-47 -3 -42 26 4 18 1 23 -9 19 -8 -3 -17 0 -21 6 -5 7 2 9 20 6 14 -3 29 -2
32 3 6 10 -26 27 -44 23 -7 -1 -8 0 -2 3 5 2 10 12 11 21 0 14 2 14 6 2 4 -8
17 -23 31 -34 l25 -20 -24 -9 c-13 -5 -19 -11 -12 -14 7 -2 9 -11 6 -19 -3 -8
-1 -14 5 -14 6 0 12 6 15 13 3 9 7 9 17 0 8 -7 20 -9 35 -3 13 5 26 6 29 3 3
-4 6 -1 6 6 0 7 -7 11 -15 8 -8 -4 -17 -2 -20 3 -4 6 2 10 12 10 11 0 24 5 31
12 9 9 15 9 24 0 7 -7 16 -12 21 -12 12 0 -14 25 -43 40 -22 12 -24 11 -13 -2
15 -17 7 -28 -19 -28 -12 0 -17 4 -12 12 13 20 14 99 2 92 -7 -4 -8 -2 -4 5 4
6 11 9 16 6 5 -3 11 -1 15 5 4 6 11 7 17 4 7 -5 9 -2 6 8 -4 8 -3 20 1 27 10
16 41 3 34 -15 -3 -8 -1 -14 5 -14 12 0 10 18 -6 48 -7 12 -9 22 -5 22 4 0 1
5 -7 10 -12 8 -11 10 8 10 18 0 22 4 18 24 -3 15 1 27 10 30 11 4 12 2 5 -12
-11 -20 2 -52 13 -33 4 6 4 15 1 21 -3 5 1 10 10 10 11 0 15 -5 12 -15 -4 -8
-1 -17 5 -21 7 -5 8 -2 3 5 -5 9 -2 12 11 9 11 -2 17 -11 16 -19 -11 -42 -10
-47 6 -45 9 2 18 9 20 17 3 11 1 11 -8 -1 -8 -12 -9 -8 -4 15 4 17 13 33 20
38 7 4 11 16 9 28 -3 16 0 19 15 14 11 -4 20 -2 20 3 0 13 -48 25 -63 15 -7
-4 -7 0 2 10 12 15 11 17 -7 17 -12 0 -23 4 -26 9 -6 10 32 3 49 -9 6 -4 18
-10 28 -13 13 -5 16 -3 10 6 -11 19 -11 96 1 100 7 3 10 -13 9 -46 l-3 -50 23
19 c21 18 21 18 7 0 -8 -10 -16 -30 -18 -44 -2 -15 -9 -31 -15 -35 -8 -6 -5
-7 6 -3 10 3 20 6 23 6 2 0 1 7 -2 15 -4 8 -1 15 5 15 10 0 15 -14 12 -34 -1
-5 6 -3 16 4 28 22 29 24 11 17 -14 -5 -17 -1 -16 18 2 19 5 21 16 13 9 -8 16
-8 25 1 9 10 8 11 -7 5 -13 -5 -17 -4 -12 4 4 7 2 12 -3 12 -15 0 -14 27 1 36
7 5 9 2 6 -8 -5 -11 0 -14 20 -12 15 1 29 2 31 3 3 1 -4 8 -15 17 -18 15 -18
15 4 10 18 -3 22 -1 18 10 -5 13 5 19 27 15 4 0 7 3 7 9 0 5 7 10 16 10 9 0
12 -5 8 -12 -4 -7 -3 -8 5 -4 21 13 -7 38 -29 26 -13 -7 -20 -6 -24 5 -3 8
-12 12 -19 9 -8 -3 -17 1 -20 9 -3 7 1 14 9 14 7 0 10 -5 7 -11 -3 -6 0 -6 7
1 11 10 11 15 -1 29 -8 10 -9 15 -3 11 7 -4 17 0 24 8 6 7 18 11 26 8 9 -3 14
2 15 13 0 12 3 14 6 6 4 -10 8 -10 21 0 9 7 13 8 9 2 -4 -7 2 -14 13 -17 11
-3 20 -1 20 4 0 5 -4 9 -10 9 -5 0 -7 7 -4 15 4 8 10 13 14 10 5 -3 10 0 12 7
3 7 7 5 11 -6 4 -9 3 -15 -2 -11 -17 10 -21 -12 -5 -25 8 -7 13 -19 10 -25 -2
-7 0 -18 6 -26 7 -10 8 -5 5 19 -2 17 0 32 4 32 4 0 10 7 13 16 3 8 2 13 -3
10 -16 -10 -19 19 -4 39 15 22 21 21 40 -4 10 -14 11 -14 9 4 -2 11 4 23 13
28 12 5 10 6 -6 3 -20 -4 -41 19 -28 32 3 3 5 0 5 -6 0 -6 7 -9 15 -6 8 4 15
10 15 16 0 5 -5 6 -11 2 -7 -4 -10 -2 -8 5 3 7 9 12 14 11 5 -1 13 7 17 17 6
13 7 11 4 -10 -2 -15 1 -30 6 -33 4 -3 8 -2 7 3 -4 22 3 25 17 7 8 -10 13 -14
10 -8 -3 7 0 17 8 23 7 6 13 23 13 37 0 16 -2 21 -7 14 -4 -7 -10 -8 -13 -3
-3 5 -1 15 4 23 8 13 12 12 24 -4 8 -11 15 -15 15 -9 0 7 -5 15 -10 18 -8 5
-7 11 1 21 12 14 29 10 29 -7 0 -6 -5 -7 -12 -3 -7 4 -8 3 -4 -5 9 -14 26 -5
26 15 0 8 4 13 9 9 15 -8 24 34 11 50 -7 8 -24 12 -40 10 -22 -2 -27 0 -23 11
3 8 9 14 15 14 5 0 6 -4 3 -10 -3 -5 -1 -10 4 -10 6 0 11 5 11 10 0 6 7 10 16
10 8 0 13 4 10 9 -3 5 2 12 12 16 16 6 16 8 -3 21 -19 14 -19 15 3 21 17 4 20
9 12 18 -8 9 -8 15 0 20 5 3 10 5 11 3 8 -36 7 -47 -9 -51 -15 -4 -15 -5 2 -6
10 0 24 -7 30 -14 6 -7 10 -10 8 -8 -1 2 5 15 13 28 9 13 12 29 8 36 -10 16
-11 47 -2 47 13 0 20 -18 9 -25 -6 -4 -3 -15 7 -30 17 -23 41 -36 28 -16 -3 6
7 6 27 1 29 -8 31 -8 16 4 -10 7 -18 19 -18 27 0 12 -2 12 -9 0 -6 -9 -11 -10
-15 -2 -4 6 -10 9 -14 7 -4 -2 -8 7 -8 20 -1 13 2 21 7 18 5 -3 9 -12 9 -21 0
-13 3 -13 15 -3 9 7 13 21 10 31 -8 23 -5 23 31 4 21 -11 24 -15 11 -15 -10 0
-15 -4 -12 -10 3 -6 -1 -7 -9 -4 -22 8 -20 -9 2 -29 22 -20 39 -23 24 -4 -6 7
-7 19 -3 26 6 10 10 9 15 -4 3 -9 11 -13 17 -9 9 5 7 11 -5 20 -21 15 -22 24
-4 35 20 13 32 11 20 -4 -8 -10 -5 -13 16 -15 19 -1 23 1 13 7 -14 9 -7 31 10
31 6 0 8 -4 4 -9 -3 -5 0 -13 6 -17 8 -4 9 -3 5 4 -4 7 -2 12 3 12 6 0 11 -5
11 -11 0 -5 5 -7 11 -3 8 4 5 11 -8 18 -11 6 -19 19 -18 28 2 11 -2 15 -11 11
-8 -3 -14 0 -14 6 0 6 6 11 14 11 8 0 18 5 22 12 4 6 3 8 -4 4 -6 -3 -21 -2
-35 3 -17 7 -28 6 -36 -2 -9 -9 -11 -8 -5 7 6 15 4 17 -6 11 -9 -5 -11 -4 -6
3 5 8 14 9 24 4 9 -5 36 -8 60 -8 47 1 48 1 27 -21 -23 -22 -13 -37 23 -39 17
-1 29 3 26 8 -3 4 -10 6 -15 3 -5 -4 -9 -1 -9 5 0 6 -5 8 -11 4 -7 -4 -10 -1
-7 7 3 8 11 13 17 11 6 -1 14 5 17 13 4 8 10 15 15 15 5 0 19 10 31 22 15 15
16 20 5 15 -11 -4 -14 -2 -10 8 3 8 10 12 16 8 5 -3 7 -1 3 5 -3 6 -17 9 -30
6 -14 -2 -29 3 -37 13 -12 15 -12 16 9 11 13 -4 22 -2 22 5 0 8 4 7 9 -2 6 -9
16 -11 32 -5 34 11 42 11 56 1 7 -5 16 -6 22 -3 5 3 11 0 14 -6 3 -9 9 -7 20
7 8 11 13 23 11 27 -3 5 5 8 18 9 22 1 19 2 -20 15 -8 2 -10 9 -5 16 4 7 9 21
10 32 3 16 1 17 -12 6 -9 -7 -14 -19 -11 -26 3 -7 1 -16 -4 -19 -6 -4 -10 -12
-10 -18 0 -8 3 -8 9 2 5 7 11 9 14 4 4 -6 0 -19 -8 -29 -13 -18 -14 -18 -23 6
-5 14 -6 32 -2 41 5 8 5 21 0 29 -5 8 -6 18 -4 22 3 4 -5 8 -17 8 -12 0 -19 3
-15 7 9 9 46 11 41 2 -3 -4 1 -12 8 -18 10 -8 19 -3 36 20 18 25 25 28 33 18
7 -10 7 -7 3 9 -4 13 -2 22 4 22 6 0 11 7 11 15 0 8 4 15 8 15 10 0 9 -36 -1
-46 -14 -14 -7 -26 7 -14 11 8 20 9 33 1 10 -6 15 -11 11 -12 -10 -2 -43 -6
-62 -8 -24 -2 -14 -41 12 -48 13 -3 21 -11 19 -18 -3 -6 1 -12 8 -12 8 0 11 7
7 15 -4 11 -1 13 7 7 10 -6 11 -3 2 13 -15 27 -14 32 4 32 16 0 19 17 9 44 -3
8 -13 12 -22 9 -15 -4 -15 -3 -2 6 12 8 13 14 3 30 -11 17 -10 19 3 14 12 -4
14 2 12 31 -2 28 -6 35 -18 31 -11 -5 -12 -3 -4 5 11 11 44 4 44 -11 0 -4 7
-6 15 -2 9 3 25 -3 37 -13 21 -19 21 -19 9 4 -7 14 -8 22 -2 22 7 0 7 9 1 25
-8 22 -7 25 7 23 9 -2 18 3 21 11 3 10 0 11 -9 5 -15 -8 1 15 30 46 13 13 14
13 9 -1 -5 -12 -1 -16 16 -16 13 0 23 6 23 13 0 8 -5 14 -10 14 -5 0 -7 7 -4
15 4 8 2 17 -3 20 -6 4 -10 12 -10 18 1 14 24 -23 25 -38 0 -5 8 -9 17 -9 16
1 16 0 1 -23 -13 -19 -23 -24 -45 -21 -16 3 -31 1 -34 -4 -3 -4 0 -8 7 -8 7 0
5 -8 -7 -21 -11 -13 -19 -36 -19 -58 0 -20 -5 -36 -11 -36 -13 0 -44 -30 -44
-43 0 -5 7 -9 15 -9 8 0 12 3 10 7 -6 10 51 50 70 50 9 0 14 -4 10 -9 -3 -5 0
-13 6 -17 7 -4 10 -3 7 2 -3 5 4 17 14 27 16 15 19 15 24 3 3 -8 2 -20 -2 -27
-4 -8 -3 -9 4 -5 7 4 12 13 12 21 0 7 3 15 8 18 4 2 2 2 -5 1 -6 -2 -15 8 -20
20 -6 18 -12 22 -28 15 -17 -6 -17 -8 -2 -8 20 -1 22 -12 6 -28 -13 -13 -39
-6 -39 9 0 5 5 6 12 2 7 -5 8 -3 4 5 -5 7 -14 10 -21 7 -7 -2 -15 4 -18 15 -3
12 0 19 10 19 8 0 11 -4 8 -10 -3 -5 -2 -10 4 -10 5 0 13 5 16 10 3 6 15 10
25 10 10 0 21 9 25 19 4 13 13 18 25 16 11 -2 20 0 20 5 0 18 55 3 59 -16 3
-17 2 -17 -15 -4 -16 13 -17 13 -11 -2 7 -20 -9 -35 -16 -16 -4 10 -8 9 -16
-2 -8 -11 -7 -16 4 -18 9 -2 12 -9 8 -15 -4 -8 -1 -7 9 1 13 10 17 10 20 0 3
-8 7 -6 11 6 4 10 3 15 -3 11 -6 -3 -10 -1 -10 5 0 7 11 9 28 7 20 -3 29 0 29
9 0 11 -3 11 -16 1 -12 -10 -14 -9 -8 5 3 10 2 20 -4 24 -6 3 -8 13 -5 21 4 8
1 11 -5 8 -6 -4 -13 2 -16 14 -3 11 -9 18 -15 15 -5 -3 -5 -11 2 -19 7 -8 7
-16 2 -19 -6 -3 -15 1 -22 9 -7 8 -10 15 -6 15 3 0 1 11 -4 25 -10 27 -11 27
48 -4 18 -9 22 -9 22 5 0 10 5 14 15 10 10 -4 15 1 16 17 0 14 3 17 6 8 3 -8
16 -24 29 -36 13 -12 24 -28 24 -35 0 -7 3 -10 7 -7 3 4 13 1 22 -5 12 -10 12
-7 -2 8 -9 11 -14 24 -10 29 5 4 3 5 -3 2 -7 -4 -17 0 -24 8 -10 13 -9 15 9
15 20 0 25 9 22 37 -1 7 7 13 18 13 14 0 19 5 15 15 -5 11 -2 13 10 9 9 -3 16
-1 16 5 0 6 -5 10 -11 8 -6 -1 -14 4 -17 12 -2 8 0 11 6 7 5 -3 13 6 16 20 8
29 3 37 -19 40 -11 2 -13 -4 -9 -22 4 -14 2 -24 -5 -24 -6 0 -8 7 -5 15 4 8 2
15 -4 15 -5 0 -12 -10 -15 -22 -4 -12 -9 -20 -12 -17 -7 7 19 71 28 70 21 -2
27 0 22 9 -3 6 -1 10 4 10 6 0 11 -5 11 -11 0 -6 6 -9 14 -6 11 4 13 -1 10
-19 -5 -25 13 -33 32 -15 21 20 48 16 54 -8 l6 -24 18 28 c10 15 13 25 8 21
-6 -3 -13 -2 -16 3 -4 5 -22 8 -41 5 -18 -2 -37 0 -40 6 -4 6 1 7 12 3 15 -6
16 -4 5 9 -10 13 -10 18 -1 24 8 4 9 3 5 -4 -4 -7 -2 -12 3 -12 16 0 24 -2 46
-10 17 -6 21 -4 23 13 1 17 -1 19 -8 7 -8 -13 -10 -12 -10 3 0 12 8 17 25 17
27 0 34 17 10 26 -8 4 -15 13 -15 22 0 13 3 12 15 -4 11 -14 14 -15 15 -4 0
10 6 8 19 -9 13 -17 18 -19 18 -7 0 9 -5 16 -10 16 -6 0 -7 3 -4 6 4 4 13 2
20 -5 11 -9 17 -8 26 3 14 16 6 23 -37 36 -17 5 -20 9 -9 9 10 1 15 5 12 11
-3 5 -1 18 4 27 6 10 11 12 11 6 0 -7 7 -13 15 -13 12 0 12 3 -2 19 -9 11 -20
18 -25 15 -4 -3 -5 1 -2 9 3 8 1 18 -5 22 -6 3 -11 12 -11 18 0 7 6 5 13 -5 8
-9 22 -15 33 -13 10 2 23 4 27 4 5 1 5 6 1 12 -5 8 -8 8 -14 0 -5 -9 -10 -8
-20 4 -10 12 -10 18 0 30 11 14 7 19 -12 16 -4 0 -5 6 -1 15 5 15 7 15 15 0 5
-9 17 -16 26 -16 16 -1 16 -1 0 -11 -10 -5 -18 -15 -18 -20 0 -6 13 -1 29 10
31 22 46 27 37 12 -3 -5 1 -11 9 -14 9 -4 12 -1 9 7 -3 8 4 16 15 19 12 3 19
0 18 -6 -1 -6 13 -12 30 -14 22 -2 32 1 30 9 -3 19 -46 51 -60 45 -7 -2 -20
-1 -30 2 -16 6 -16 8 -1 26 13 17 15 17 10 3 -4 -13 0 -18 16 -18 12 0 29 -6
37 -14 16 -14 35 -20 58 -17 9 1 15 71 6 71 -2 0 -12 -9 -23 -20 -18 -18 -14
-26 13 -21 5 1 6 -3 2 -9 -10 -16 -29 -12 -42 9 -10 15 -9 22 1 31 11 8 15 8
18 -2 3 -7 7 -2 10 10 5 20 3 22 -14 16 -18 -5 -19 -4 -7 9 8 8 20 12 28 9 29
-11 64 -62 43 -62 -4 0 -8 -10 -9 -21 -2 -21 -1 -21 26 5 15 14 31 23 36 19 4
-5 5 -2 1 5 -4 6 -13 12 -21 12 -8 0 -13 9 -12 20 1 21 17 29 17 8 0 -6 3 -8
7 -5 3 4 12 2 18 -3 9 -8 12 -4 11 12 -1 13 5 28 13 34 12 9 11 12 -2 17 -11
4 -21 -1 -27 -13 -7 -14 -7 -20 0 -20 5 0 10 -5 10 -10 0 -6 -11 -3 -24 5 -24
16 -44 6 -31 -15 3 -5 0 -7 -7 -5 -8 3 -14 14 -15 25 -2 17 3 19 28 15 18 -3
28 -2 25 4 -3 5 1 12 10 15 8 3 14 14 12 23 -2 12 4 18 17 19 51 3 52 3 49 34
-4 34 3 38 22 13 11 -14 13 -14 11 -3 -2 8 -2 12 0 7 3 -4 9 -5 14 -2 5 4 6
-1 3 -9 -3 -9 -1 -17 5 -17 6 -1 16 -2 21 -3 6 0 14 -7 19 -14 7 -11 9 -11 14
1 8 22 -16 40 -33 24 -12 -10 -12 -9 -2 5 9 11 10 18 2 23 -6 3 -7 12 -3 18 4
8 1 7 -9 -1 -14 -11 -17 -10 -23 8 -4 12 -4 24 -1 27 3 4 6 -1 6 -10 0 -13 5
-15 24 -8 20 8 23 7 20 -14 -1 -13 4 -26 11 -29 9 -3 11 2 7 17 -5 20 -3 20
23 -5 28 -28 55 -37 55 -18 0 5 -6 7 -13 4 -7 -2 -24 7 -36 20 -13 14 -28 23
-32 20 -5 -3 -6 2 -2 12 5 13 2 15 -15 10 -16 -6 -21 -4 -17 7 3 7 16 12 28
11 12 -1 28 -3 35 -3 7 -1 10 -6 7 -11 -4 -6 -12 -7 -18 -4 -7 4 -8 3 -4 -2 5
-5 12 -9 15 -9 4 0 13 -4 20 -9 8 -5 18 -4 25 3 14 14 18 71 6 71 -5 0 -9 -5
-9 -10 0 -7 -6 -7 -19 0 -16 8 -20 6 -24 -8 -3 -10 -5 -6 -6 11 -1 17 4 27 13
27 8 0 17 6 20 13 3 6 3 1 0 -12 -4 -14 -2 -21 4 -17 14 8 20 65 8 70 -7 3 -7
5 1 5 6 1 15 -4 18 -9 5 -8 12 -7 22 2 15 12 15 11 2 -9 -9 -16 -16 -19 -21
-10 -5 8 -8 3 -8 -12 0 -16 4 -21 14 -18 16 6 30 -19 19 -35 -3 -7 -1 -8 6 -4
7 5 9 16 5 28 -4 13 -2 18 4 14 6 -4 8 2 5 14 -3 11 -1 20 5 20 6 0 13 9 17
20 5 16 9 17 20 7 9 -9 10 -16 2 -25 -8 -10 -7 -12 3 -10 20 4 39 22 33 31 -2
4 -1 7 4 7 12 -1 59 -29 49 -30 -5 0 -1 -9 9 -20 17 -19 49 -21 74 -6 5 4 12
2 15 -3 4 -5 1 -11 -6 -14 -7 -2 -4 -3 7 -1 11 2 40 -10 64 -26 24 -17 39 -30
32 -30 -7 0 -9 -5 -5 -11 5 -8 8 -8 13 0 5 7 21 1 46 -17 40 -27 159 -103 361
-231 135 -85 184 -100 275 -81 150 32 259 160 259 306 0 107 -44 187 -142 260
-31 23 -54 45 -50 48 3 4 -1 4 -11 0 -13 -5 -16 -2 -11 12 4 12 3 15 -3 7 -11
-15 -120 51 -115 69 2 7 0 10 -3 6 -4 -4 -17 -2 -29 4 -38 20 -221 143 -224
150 -2 5 -8 8 -14 8 -17 0 -36 32 -30 52 2 10 8 15 13 12 5 -3 9 0 9 6 0 7 -7
10 -15 7 -8 -4 -17 -1 -21 5 -4 6 -3 8 4 4 6 -3 14 -1 18 6 4 7 4 10 -1 6 -4
-4 -13 -4 -19 2 -8 6 -13 0 -14 -21 -2 -22 1 -28 10 -23 10 5 10 4 1 -6 -10
-11 -9 -16 5 -27 26 -22 -8 -3 -52 29 -21 15 -35 28 -30 28 5 0 20 -7 32 -16
20 -14 22 -14 22 4 0 11 -7 23 -16 26 -8 3 -13 10 -9 15 3 5 1 12 -4 16 -6 3
-8 -3 -6 -15 2 -11 -1 -20 -8 -20 -15 0 -46 20 -32 20 6 0 11 9 12 20 1 11 -2
18 -7 15 -4 -3 -6 5 -2 17 5 20 2 21 -34 15 -23 -4 -33 -3 -25 2 8 5 10 14 5
22 -6 11 -5 12 8 2 8 -7 18 -10 21 -7 4 4 18 -1 32 -10 15 -10 34 -15 43 -13
15 4 15 5 0 6 -10 0 -18 8 -18 17 0 10 -5 14 -15 10 -13 -4 -14 -2 -5 14 8 15
6 24 -10 40 -11 11 -16 20 -11 20 6 0 13 -5 17 -11 4 -8 9 -7 16 2 6 10 7 7 3
-8 -5 -18 -3 -22 9 -17 8 3 13 11 10 19 -3 7 2 19 10 28 18 17 21 32 6 22 -6
-4 -7 1 -3 11 4 11 8 13 11 6 2 -7 10 -12 18 -12 11 0 14 8 10 30 -4 31 17 65
35 55 13 -9 11 -15 -3 -12 -6 1 -13 -10 -14 -24 -2 -17 2 -26 12 -26 8 0 14 5
14 11 0 5 6 2 13 -9 9 -11 16 -14 20 -7 4 5 17 8 29 4 13 -3 19 -1 15 5 -4 6
0 16 8 23 12 10 15 10 15 -3 0 -20 -27 -47 -46 -47 -8 0 -14 -4 -14 -9 0 -11
38 -2 46 11 3 5 11 4 19 -2 10 -8 15 -8 21 1 4 7 3 9 -4 5 -19 -12 -26 17 -7
31 12 8 14 13 6 13 -10 0 -11 3 -2 13 6 8 8 17 4 20 -3 4 -1 7 6 7 9 0 9 5 1
20 -9 16 -8 18 5 14 12 -5 14 -15 9 -40 -4 -23 -2 -34 5 -34 7 0 9 5 6 10 -3
6 -3 15 1 22 5 7 11 5 21 -8 13 -17 13 -17 10 6 -2 14 2 30 11 36 12 9 12 13
2 19 -9 6 -11 4 -6 -6 4 -8 1 -6 -7 4 -21 26 -27 21 -17 -15 9 -31 8 -32 -6
-13 -8 11 -13 28 -11 37 3 9 1 18 -3 20 -13 5 -22 48 -11 48 6 0 11 -9 11 -21
0 -14 4 -18 13 -12 6 4 17 8 22 9 6 0 16 2 23 2 6 1 12 6 12 12 0 5 -8 6 -17
3 -16 -6 -16 -5 -5 10 8 8 20 13 28 10 9 -3 14 2 15 13 0 11 3 14 5 7 3 -6 -2
-23 -12 -37 -10 -16 -12 -26 -5 -26 6 0 11 6 11 14 0 7 7 19 15 26 8 7 12 17
8 23 -3 6 -1 7 5 3 7 -4 12 -3 12 2 0 6 -7 12 -15 16 -8 3 -15 11 -15 18 0 9
3 9 10 -2 9 -13 12 -12 25 4 8 11 15 15 15 9 0 -7 -5 -15 -10 -18 -8 -5 -8
-11 -1 -19 6 -7 9 -15 7 -17 -2 -2 7 -5 20 -5 13 -1 21 2 18 7 -3 5 -12 9 -20
9 -8 0 -14 5 -14 11 0 5 4 7 10 4 6 -4 7 1 3 12 -5 15 -3 16 8 6 16 -16 29
-17 29 -2 0 5 -4 7 -10 4 -5 -3 -10 -2 -10 2 0 5 -10 14 -21 22 -17 10 -23 10
-29 1 -5 -9 -9 -9 -14 -1 -4 6 -2 11 3 11 6 0 11 5 11 11 0 5 -4 7 -10 4 -6
-3 -7 1 -4 9 7 19 30 21 41 3 11 -19 41 -28 49 -15 4 6 3 8 -3 5 -6 -4 -17 1
-24 10 -13 14 -11 16 14 11 24 -5 26 -3 15 11 -7 9 -8 13 -4 9 5 -4 15 -3 23
3 10 9 12 6 7 -19 -4 -19 -1 -32 6 -37 10 -6 11 -1 6 19 -5 19 -3 26 4 21 8
-5 10 3 7 24 -3 17 -1 29 4 25 5 -3 9 4 9 15 0 12 5 20 10 18 6 -1 16 9 23 22
8 16 23 25 45 27 17 2 32 -1 32 -6 0 -6 -10 -11 -22 -11 -18 -1 -19 -2 -5 -6
14 -4 16 -8 6 -19 -10 -12 -9 -13 6 -8 11 5 16 4 12 -3 -3 -5 0 -10 8 -10 8 0
15 4 15 9 0 4 -4 8 -10 8 -5 0 -7 7 -3 16 3 8 11 13 18 10 8 -3 16 1 18 8 4
10 -1 12 -16 10 -12 -2 -16 -2 -9 2 6 3 12 13 12 21 0 10 -4 13 -13 7 -7 -5
-4 -1 6 8 22 21 39 15 30 -10 -3 -9 -3 -14 2 -10 20 18 6 86 -16 73 -4 -3 -6
6 -3 20 2 14 0 25 -5 25 -6 0 -15 10 -21 23 -10 20 -10 20 3 5 11 -14 16 -15
26 -5 10 9 11 9 6 -4 -3 -9 3 -23 15 -34 11 -10 20 -14 20 -8 0 5 18 10 41 9
33 0 39 -4 36 -18 -3 -10 -2 -20 2 -22 4 -3 8 9 9 25 1 17 3 33 3 37 1 4 1 18
0 32 -2 24 -2 24 -13 6 -8 -15 -8 -21 0 -24 8 -2 7 -8 -3 -18 -14 -15 -35 -11
-35 5 0 4 9 18 20 31 11 13 20 27 20 31 0 5 11 3 25 -3 14 -6 25 -15 25 -20 0
-5 -4 -6 -10 -3 -5 3 -10 1 -10 -4 0 -14 30 -14 31 -1 1 6 2 16 3 22 0 7 8 13
16 14 31 2 35 5 20 14 -13 8 -12 10 2 10 10 0 17 3 17 8 -3 20 2 25 12 12 9
-12 10 -12 5 3 -4 12 -2 17 6 14 7 -2 12 -10 10 -16 -1 -7 2 -10 8 -6 5 3 10
1 10 -4 0 -6 -4 -11 -9 -11 -15 0 -22 -31 -11 -48 9 -14 10 -13 5 5 -6 23 8
38 26 27 8 -4 7 -9 -2 -16 -11 -8 -11 -9 1 -5 8 2 15 8 15 13 0 5 4 14 8 21 4
6 3 14 -3 18 -5 3 -10 3 -10 0 0 -3 -10 3 -22 15 -26 24 -44 26 -52 4 -3 -8
-11 -12 -17 -8 -8 4 -9 3 -5 -5 5 -7 2 -10 -5 -9 -7 2 -13 -2 -14 -9 0 -6 -4
-15 -9 -20 -5 -4 -6 -3 -2 4 4 8 0 11 -14 8 -25 -5 -50 4 -50 17 0 5 6 5 16 0
21 -12 56 -3 47 11 -3 5 -1 7 4 4 6 -4 14 0 17 8 3 8 11 14 18 13 8 -2 12 5
10 15 -2 14 3 17 27 15 16 -1 27 -6 25 -10 -3 -4 0 -8 6 -8 6 0 8 -5 4 -12 -4
-6 -3 -8 4 -4 6 3 13 2 17 -4 11 -17 24 -11 20 10 -4 22 2 25 24 11 7 -5 10
-14 7 -20 -4 -6 -2 -11 3 -11 6 0 11 7 11 16 0 8 4 13 9 9 6 -3 8 4 6 16 -6
29 -13 35 -27 21 -15 -15 -32 -16 -23 -2 3 6 3 10 -2 11 -4 0 -21 3 -37 5 -18
3 -32 0 -37 -8 -7 -11 -9 -11 -9 0 0 7 -5 10 -12 6 -7 -4 -8 -3 -4 4 5 8 -1
12 -16 12 -22 1 -22 1 -4 12 15 8 21 7 28 -6 5 -9 14 -14 19 -10 20 12 69 15
69 5 0 -6 11 -11 25 -11 14 0 25 5 25 11 0 5 -6 7 -12 3 -7 -4 -9 -3 -5 1 4 5
-3 15 -15 22 l-23 14 23 -6 c22 -6 31 8 12 20 -6 4 -7 11 -4 17 15 25 -23 -1
-41 -28 -22 -32 -51 -40 -59 -17 -3 8 -2 11 3 8 5 -3 12 -1 16 5 4 6 10 8 15
5 5 -3 12 0 17 7 7 13 9 17 12 37 0 5 9 8 18 7 10 0 20 9 24 24 l7 25 1 -26
c1 -14 10 -34 22 -45 20 -18 20 -18 16 7 -4 17 2 32 19 48 20 19 24 20 24 7 0
-9 -10 -20 -22 -25 -18 -6 -19 -9 -5 -14 10 -4 17 -1 17 5 0 6 9 3 19 -6 11
-10 25 -15 30 -11 6 3 11 1 11 -4 0 -6 5 -11 12 -11 6 0 9 2 6 6 -3 3 -2 20 2
39 7 33 -7 64 -23 48 -4 -3 -9 1 -12 9 -4 10 -14 14 -28 10 -13 -3 -18 -1 -14
4 5 5 13 10 18 10 5 1 12 2 15 3 4 0 0 9 -7 19 -12 15 -12 16 1 5 16 -12 44
-3 39 13 -1 5 6 10 17 11 10 2 13 0 7 -3 -22 -10 -14 -26 8 -19 14 5 25 2 30
-6 11 -18 11 -32 1 -25 -4 2 -14 1 -21 -4 -11 -6 -10 -12 7 -30 12 -14 22 -18
27 -11 3 6 1 11 -6 11 -22 0 0 13 27 16 18 2 28 -3 34 -19 l9 -22 0 22 c1 29
16 37 32 17 11 -14 9 -19 -11 -35 -14 -10 -20 -19 -14 -19 6 0 19 9 29 20 15
17 16 22 4 37 -12 15 -12 16 2 11 9 -4 16 -1 16 7 0 10 -5 11 -19 4 -12 -6
-18 -6 -18 1 0 5 -4 10 -10 10 -5 0 -9 -3 -7 -7 4 -13 -7 -15 -35 -8 -16 4
-28 11 -28 16 0 11 11 11 29 0 10 -7 24 -3 43 10 15 11 28 17 28 13 0 -4 11 3
25 16 14 13 25 29 25 36 0 8 6 11 16 7 13 -5 13 -7 2 -14 -10 -7 -8 -9 6 -9
12 0 16 5 13 14 -7 18 18 40 34 30 8 -4 9 -3 5 4 -5 8 0 12 13 12 11 0 23 5
26 10 4 6 3 10 -2 9 -20 -3 -34 2 -28 11 3 6 -1 13 -10 16 -12 5 -13 10 -5 20
7 7 19 10 27 7 10 -4 14 -2 10 4 -4 6 1 14 10 17 13 5 14 9 4 19 -10 9 -15 8
-27 -7 -8 -11 -14 -14 -14 -8 0 19 4 27 13 25 4 -2 7 1 7 6 0 5 -6 11 -14 13
-13 3 -12 7 0 28 9 14 13 17 10 8 -3 -10 -2 -17 2 -17 4 1 10 0 15 -1 19 -6
33 -5 40 5 5 6 7 4 5 -5 -3 -8 -15 -17 -29 -21 l-24 -7 24 -1 c17 -1 21 -5 17
-17 -3 -9 -6 -20 -6 -25 0 -6 -6 -7 -12 -3 -10 6 -10 5 -1 -8 7 -8 11 -18 8
-21 -3 -4 -2 -5 2 -2 3 3 13 -1 22 -7 9 -7 12 -8 8 -3 -4 5 3 15 15 22 l23 13
-26 -4 c-23 -4 -25 -1 -25 30 1 19 5 32 11 31 5 -2 16 2 23 9 7 7 18 11 26 8
7 -3 13 2 13 10 0 11 -5 12 -17 6 -13 -7 -22 -4 -36 11 -25 28 -28 59 -6 60
11 0 13 2 4 6 -9 3 -4 10 13 19 29 15 58 20 40 6 -24 -17 -3 -52 30 -50 13 1
21 6 18 11 -2 4 -14 5 -26 1 -17 -5 -19 -4 -10 6 6 7 9 19 6 26 -8 22 15 16
27 -6 6 -12 20 -19 33 -19 21 2 21 2 -1 6 -18 3 -23 10 -19 24 3 10 1 16 -4
13 -5 -3 -12 2 -15 11 -4 9 -12 14 -19 11 -8 -3 -11 2 -8 15 3 10 10 19 15 19
5 0 7 -4 4 -8 -2 -4 4 -14 16 -21 11 -7 17 -8 13 -2 -3 6 -2 11 3 11 5 0 14
-10 21 -22 9 -18 10 -18 5 -3 -3 11 -8 26 -11 34 -5 11 -2 11 16 2 13 -7 19
-17 14 -24 -4 -7 0 -7 10 2 18 15 23 26 7 16 -6 -3 -13 1 -16 9 -7 19 -35 21
-53 4 -11 -11 -13 -10 -8 4 3 9 1 15 -6 14 -18 -3 -52 -24 -49 -30 6 -14 1
-24 -15 -30 -16 -6 -16 -6 0 12 9 10 14 22 11 25 -4 4 -2 13 4 20 7 8 10 16 8
18 -3 2 9 4 25 3 16 0 32 -4 36 -7 11 -12 23 -8 23 8 0 9 -6 15 -12 14 -25 -3
-35 1 -35 16 0 8 7 15 14 15 8 0 12 -4 9 -8 -7 -11 67 -11 75 0 3 4 11 -3 19
-17 15 -29 23 -31 40 -10 7 8 18 15 25 15 21 0 13 26 -9 28 -17 1 -18 -1 -6
-8 14 -9 7 -14 -13 -11 -5 1 -6 -3 -2 -9 3 -5 -1 -10 -10 -10 -9 0 -19 9 -22
20 -6 22 -29 27 -36 8 -4 -10 -6 -10 -6 0 -1 8 -6 10 -13 6 -9 -5 -10 -4 -3 4
6 7 27 13 47 14 24 2 34 7 31 16 -4 10 -8 10 -21 0 -13 -11 -14 -10 -10 2 2 8
17 16 31 18 20 3 25 0 21 -11 -6 -18 12 -32 21 -17 5 8 11 7 21 -1 17 -14 48
7 40 27 -3 7 1 17 8 24 10 8 15 7 20 -5 3 -9 11 -13 17 -9 8 5 6 10 -5 16 -16
9 -16 11 0 29 16 18 16 19 -4 19 -11 0 -24 -4 -27 -10 -4 -6 1 -7 12 -3 16 6
16 5 4 -11 -8 -9 -20 -15 -27 -12 -9 3 -11 -4 -9 -24 4 -29 -15 -55 -23 -32
-5 15 -32 16 -32 0 0 -6 -2 -9 -5 -6 -10 9 7 38 18 31 6 -3 7 -1 3 5 -4 6 -13
9 -21 5 -8 -3 -15 0 -15 6 0 6 7 11 15 11 9 0 15 9 15 21 0 21 -1 21 -26 4
-20 -13 -29 -14 -38 -5 -6 6 -6 11 -1 10 27 -6 33 2 30 38 -1 20 2 43 7 50 7
8 6 17 -3 29 -12 15 -12 16 4 10 10 -4 21 -7 23 -7 3 0 -3 -14 -11 -31 -16
-30 -16 -31 7 -28 13 1 32 -2 42 -6 13 -6 23 -3 31 8 7 10 17 17 24 17 14 0
14 17 -1 26 -7 4 -8 3 -4 -4 4 -7 1 -12 -8 -12 -8 0 -16 -6 -19 -12 -3 -10 -9
-9 -23 4 -16 16 -18 16 -31 0 -10 -11 -12 -12 -7 -2 16 34 25 39 50 29 15 -5
23 -5 19 0 -3 5 -1 12 5 16 6 4 8 11 5 16 -4 5 1 9 9 9 9 0 16 4 16 10 0 11
-30 1 -47 -16 -10 -10 -10 -13 0 -17 8 -4 7 -6 -3 -6 -9 -1 -22 5 -29 12 -11
10 -13 10 -7 0 10 -19 -5 -15 -33 6 l-25 19 27 -5 c19 -4 29 0 33 11 5 12 10
13 24 6 13 -7 21 -7 25 0 8 13 45 13 45 -1 0 -5 4 -8 9 -4 5 3 13 0 17 -6 4
-7 3 -9 -3 -6 -6 4 -18 -2 -27 -12 -13 -14 -14 -21 -5 -27 7 -4 10 -3 5 4 -9
15 48 42 65 31 8 -5 10 -9 5 -9 -5 0 -2 -8 7 -18 10 -10 16 -21 15 -23 -2 -2
2 2 9 9 14 17 7 39 -15 45 -15 4 -14 5 1 6 10 0 15 6 12 11 -3 6 -2 10 4 10 5
0 12 -4 16 -10 9 -15 34 0 28 17 -4 10 -8 11 -13 3 -3 -6 -14 -8 -23 -4 -9 3
-14 11 -10 17 3 6 1 7 -6 3 -6 -4 -9 -11 -6 -16 3 -4 -1 -13 -9 -19 -11 -9
-22 -7 -47 7 -18 10 -34 25 -37 32 -3 12 -1 12 6 2 9 -13 42 -6 42 9 0 6 7 6
18 1 9 -5 29 -6 44 -3 21 5 25 9 18 21 -7 10 -10 11 -10 2 0 -9 -4 -10 -18 -1
-20 12 -26 42 -8 36 6 -3 10 -11 8 -18 -2 -9 4 -7 17 5 19 17 20 21 6 36 -13
14 -13 18 3 35 11 13 12 15 2 7 -13 -9 -18 -7 -28 8 -7 12 -8 21 -2 25 6 4 7
11 4 17 -4 6 -10 5 -15 -3 -15 -23 -9 4 6 31 9 16 15 20 15 10 1 -8 3 -24 5
-35 2 -11 -1 -22 -6 -26 -6 -4 -4 -9 6 -13 15 -5 16 0 13 38 -4 33 -1 46 12
54 12 7 17 7 17 -4 0 -7 -4 -11 -8 -9 -4 3 -9 -1 -12 -9 -4 -10 0 -12 14 -9
11 3 19 0 19 -7 0 -7 -6 -10 -13 -7 -10 4 -13 -6 -13 -36 1 -32 5 -43 20 -45
10 -2 16 0 12 6 -7 11 19 10 30 -1 15 -14 24 -6 19 16 -4 15 -1 28 9 36 9 7
13 17 10 22 -3 5 3 12 12 16 16 6 16 7 1 12 -12 4 -14 10 -7 21 8 12 12 12 18
2 7 -10 11 -10 22 3 7 8 10 18 6 22 -3 3 -6 1 -6 -6 0 -7 -5 -9 -10 -6 -8 5
-7 11 1 21 6 8 7 14 3 14 -5 0 -15 -9 -22 -20 -7 -11 -17 -20 -23 -20 -5 0 -8
4 -4 9 3 6 -1 13 -8 18 -12 6 -10 12 6 28 16 16 19 17 14 3 -5 -13 -2 -15 11
-11 9 4 19 9 22 13 3 3 16 11 30 18 17 8 18 10 5 7 -17 -4 -20 0 -21 25 l-2
29 19 -22 18 -22 -4 30 c-2 17 -4 33 -4 38 -1 4 -7 7 -14 7 -8 0 -14 7 -14 15
0 18 9 19 25 3 9 -9 12 -7 12 10 0 12 -6 22 -12 22 -10 0 -10 2 -1 8 18 12 16
191 -3 227 -16 31 -19 48 -4 25 7 -12 10 -8 10 15 0 21 -3 26 -9 16 -5 -8 -11
-9 -15 -3 -7 11 23 26 33 16 3 -3 8 -1165 11 -2582 l5 -2577 3 2537 c2 2759 5
2630 -53 2866 -161 661 -701 1209 -1348 1367 -256 63 -54 59 -2832 61 -1392 1
-2570 -2 -2620 -7z m6803 -1504 c0 -16 -2 -15 -8 5 -4 14 -8 34 -8 45 0 16 2
15 8 -5 4 -14 8 -34 8 -45z m9 -62 c-3 -10 -5 -4 -5 12 0 17 2 24 5 18 2 -7 2
-21 0 -30z m10 -70 c-3 -10 -5 -2 -5 17 0 19 2 27 5 18 2 -10 2 -26 0 -35z
m-41 -148 c-2 -7 -2 -16 2 -19 10 -10 11 -37 1 -30 -5 3 -9 0 -9 -7 0 -7 -3
-9 -6 -6 -4 4 -1 13 6 22 12 14 7 20 -14 16 -5 -1 -4 5 3 13 7 8 9 21 5 27 -5
8 -3 9 5 5 7 -5 10 -14 7 -21z m-31 -63 c-10 -10 16 -41 30 -36 8 4 13 9 11
13 -3 4 4 13 15 19 18 12 19 11 10 -7 -13 -24 -14 -34 -3 -27 5 3 9 -8 9 -24
0 -18 -6 -30 -14 -30 -7 0 -13 2 -13 4 0 2 -3 13 -6 23 -5 15 -4 16 6 3 10
-13 11 -13 7 0 -2 8 -12 14 -21 14 -9 -1 -24 9 -32 21 -10 15 -21 22 -31 18
-11 -4 -14 -2 -9 5 3 6 15 10 26 9 10 -1 17 -3 15 -5z m-75 -24 c0 -4 -4 -8
-9 -8 -6 0 -12 4 -15 8 -3 5 1 9 9 9 8 0 15 -4 15 -9z m41 -22 c1 5 1 12 0 17
-2 13 17 7 22 -7 10 -25 -32 -27 -44 -3 -10 21 -10 21 5 3 9 -11 17 -16 17
-10z m-61 -11 c-14 -17 -3 -38 17 -31 8 3 11 2 8 -3 -9 -15 -42 -8 -42 9 0 15
15 40 24 40 3 0 0 -7 -7 -15z m90 -35 c-12 -7 -10 -11 10 -18 14 -5 32 -7 40
-4 12 4 12 2 -2 -14 -16 -19 -18 -23 -18 -45 0 -5 -4 -8 -9 -5 -5 4 -12 0 -15
-6 -5 -10 -7 -10 -12 0 -3 6 -13 12 -22 13 -14 0 -14 2 -2 6 8 4 21 12 28 20
8 7 18 11 23 8 5 -4 9 -1 9 5 0 7 -8 9 -21 5 -14 -5 -19 -3 -15 3 3 6 2 13 -4
17 -16 10 -12 25 8 25 14 0 15 -2 2 -10z m-107 -43 c3 -8 -1 -14 -8 -14 -7 0
-11 6 -8 14 3 7 6 13 8 13 2 0 5 -6 8 -13z m-46 -42 c0 -8 -4 -15 -9 -15 -10
0 -11 14 -1 23 9 10 10 9 10 -8z m61 8 c-10 -2 -26 -2 -35 0 -10 3 -2 5 17 5
19 0 27 -2 18 -5z m58 -23 c8 0 12 -5 9 -11 -5 -7 -13 -4 -26 7 -10 9 -15 22
-11 28 4 7 8 5 10 -6 2 -10 10 -18 18 -18z m-176 2 c0 -5 -7 -9 -15 -9 -8 0
-12 4 -9 9 3 4 9 8 15 8 5 0 9 -4 9 -8z m84 -8 c3 -8 2 -12 -4 -9 -6 3 -10 10
-10 16 0 14 7 11 14 -7z m166 -9 c0 -1 -14 -5 -32 -7 -27 -4 -29 -3 -14 8 15
10 46 10 46 -1z m-103 -60 c-1 -5 4 -9 11 -7 8 1 11 -2 7 -7 -8 -14 -35 -2
-35 15 0 8 -5 14 -11 14 -5 0 -7 -5 -3 -12 4 -7 3 -8 -4 -4 -7 4 -12 16 -12
27 0 19 1 19 24 2 13 -10 23 -22 23 -28z m93 26 c12 -23 -7 -42 -20 -21 -5 9
-9 9 -14 1 -9 -14 -26 -4 -26 15 0 8 4 13 9 9 5 -3 12 -1 16 5 10 16 23 12 35
-9z m-150 -1 c0 -5 -7 -7 -15 -4 -8 4 -15 8 -15 10 0 2 7 4 15 4 8 0 15 -4 15
-10z m-105 -62 c-9 -6 -19 -7 -22 -4 -4 3 -1 6 6 6 7 0 9 4 6 10 -4 6 1 7 11
3 15 -6 15 -7 -1 -15z m45 -35 c0 -19 -13 -9 -16 12 -1 8 2 13 7 9 5 -3 9 -12
9 -21z m128 19 c13 11 14 11 10 -2 -6 -18 -30 -20 -34 -2 -1 7 0 8 3 2 3 -7
10 -7 21 2z m-181 -27 c0 -20 -4 -19 -17 5 -8 15 -8 18 3 14 8 -3 14 -11 14
-19z m138 15 c-2 -3 -21 -7 -42 -8 -21 -1 -33 1 -26 5 13 9 73 12 68 3z m82 3
c-4 -3 -1 -13 6 -21 9 -13 9 -14 0 -8 -7 4 -13 3 -13 -3 0 -5 5 -11 11 -13 14
-5 -18 -78 -33 -78 -6 0 -5 6 2 15 6 8 8 20 4 26 -4 7 -3 9 3 6 6 -4 13 0 17
8 9 25 -17 17 -42 -12 l-24 -28 24 35 c23 36 25 38 27 65 0 8 6 15 13 15 6 0
8 -3 5 -7z m-178 -47 c-3 -3 -11 5 -18 17 -13 21 -12 21 5 5 10 -10 16 -20 13
-22z m-14 -36 c3 -6 -1 -7 -9 -4 -18 7 -21 14 -7 14 6 0 13 -4 16 -10z m-60
-10 c-4 -6 -1 -18 7 -27 12 -15 11 -15 -9 -3 -16 11 -19 17 -11 27 13 16 22
17 13 3z m125 -45 c11 -13 10 -14 -4 -9 -9 3 -16 10 -16 15 0 13 6 11 20 -6z
m-215 -14 c3 -5 2 -12 -3 -15 -5 -3 -9 1 -9 9 0 17 3 19 12 6z m97 2 c-6 -3
-9 -10 -5 -16 4 -7 -1 -6 -10 2 -21 17 -21 17 6 18 12 0 16 -1 9 -4z m33 -3
c3 -5 1 -10 -4 -10 -6 0 -11 5 -11 10 0 6 2 10 4 10 3 0 8 -4 11 -10z m65 -11
c0 -6 3 -8 8 -5 4 2 15 -2 25 -9 10 -7 14 -16 9 -19 -6 -3 -12 1 -16 9 -3 8
-12 12 -20 9 -17 -6 -18 -42 -2 -64 8 -11 4 -10 -16 3 -34 21 -38 21 -38 0 0
-13 -3 -14 -12 -5 -7 7 -19 12 -27 12 -9 0 -21 11 -27 23 -8 18 -8 24 2 24 7
0 13 -3 12 -6 -2 -21 4 -29 20 -26 9 2 23 4 30 4 10 1 10 6 2 21 -8 16 -8 20
2 18 7 -2 12 2 11 7 -1 6 7 12 18 12 10 1 19 -3 19 -8z m-149 -62 c-7 -18 -7
-27 2 -30 9 -3 8 -8 -2 -18 -9 -9 -11 -10 -7 -1 4 7 0 15 -9 18 -13 6 -14 8
-3 15 10 6 10 9 1 9 -9 0 -7 6 4 20 21 25 26 20 14 -13z m-76 -47 c-3 -5 -1
-10 5 -10 6 0 8 -5 4 -11 -4 -8 -9 -7 -15 2 -7 12 -3 29 7 29 3 0 2 -4 -1 -10z
m131 -2 c3 -4 -1 -5 -10 -4 -8 1 -18 5 -22 8 -3 4 1 5 10 4 8 -1 18 -5 22 -8z
m-84 -30 c-8 -8 -9 -4 -5 13 4 13 8 18 11 10 2 -7 -1 -18 -6 -23z m-161 -21
c-5 -5 -7 -15 -5 -22 3 -7 2 -15 -3 -18 -4 -3 -8 7 -8 22 -1 17 5 28 12 28 9
0 10 -4 4 -10z m81 -10 c3 -18 0 -23 -16 -24 -12 -1 -15 1 -8 4 6 3 10 9 6 14
-5 8 2 29 10 29 2 0 6 -10 8 -23z m283 -7 c3 -5 2 -10 -4 -10 -5 0 -13 5 -16
10 -3 6 -2 10 4 10 5 0 13 -4 16 -10z m-354 -33 c-10 -9 -11 -8 -5 6 3 10 9
15 12 12 3 -3 0 -11 -7 -18z m94 -17 c3 -5 1 -10 -4 -10 -6 0 -11 5 -11 10 0
6 2 10 4 10 3 0 8 -4 11 -10z m-3570 -34 c115 -37 196 -89 284 -182 240 -254
264 -609 60 -880 l-47 -62 432 -272 c1736 -1098 1663 -1049 1699 -1154 50
-146 -21 -307 -164 -371 -73 -33 -162 -37 -222 -12 -21 9 -165 99 -320 200
-600 390 -615 399 -635 388 -14 -7 -19 -7 -19 4 0 7 6 11 14 8 37 -15 0 14
-124 93 -76 48 -232 149 -348 224 -235 153 -785 497 -810 506 -9 4 -33 -5 -55
-20 -22 -14 -191 -121 -376 -237 -185 -116 -389 -245 -453 -288 -64 -43 -343
-224 -621 -403 -278 -179 -552 -356 -610 -393 -132 -85 -155 -95 -229 -95
-121 0 -228 67 -281 175 -51 102 -25 248 58 328 33 32 405 271 1655 1066 l397
253 -29 36 c-179 227 -202 538 -59 780 45 76 151 187 222 233 165 108 390 137
581 75z m3436 11 c-10 -9 -11 -8 -5 6 3 10 9 15 12 12 3 -3 0 -11 -7 -18z m82
-20 c-7 -11 -23 2 -23 19 0 12 2 12 14 2 8 -7 12 -16 9 -21z m37 19 c0 -3 -4
-8 -10 -11 -5 -3 -10 -1 -10 4 0 6 5 11 10 11 6 0 10 -2 10 -4z m17 -26 c-1
-12 -5 -16 -10 -11 -5 5 -6 14 -3 20 11 16 15 13 13 -9z m-104 -55 c-3 -9 -8
-14 -10 -11 -3 3 -2 9 2 15 9 16 15 13 8 -4z m-69 -10 c-4 -8 -11 -12 -16 -9
-6 4 -5 10 3 15 19 12 19 11 13 -6z m160 9 c20 -8 21 -24 1 -24 -8 0 -15 4
-15 9 0 5 -8 12 -17 14 -16 4 -16 5 -1 6 9 0 23 -2 32 -5z m-320 -40 c3 -8 2
-12 -4 -9 -6 3 -10 10 -10 16 0 14 7 11 14 -7z m156 -5 c0 -5 -7 -12 -15 -15
-8 -4 -12 -11 -8 -17 4 -6 1 -7 -7 -2 -10 6 -10 10 3 20 13 9 14 14 4 24 -9
10 -8 11 6 6 9 -4 17 -11 17 -16z m50 11 c0 -5 -2 -10 -4 -10 -3 0 -8 5 -11
10 -3 6 -1 10 4 10 6 0 11 -4 11 -10z m-136 -32 c-4 -6 -10 -5 -15 3 -14 22
-10 33 6 19 8 -7 12 -17 9 -22z m41 12 c-3 -5 -12 -10 -18 -10 -7 0 -6 4 3 10
19 12 23 12 15 0z m169 2 c3 -5 -1 -9 -9 -9 -8 0 -12 4 -9 9 3 4 7 8 9 8 2 0
6 -4 9 -8z m-38 -21 c1 -6 0 -7 -3 -1 -2 5 -9 8 -13 5 -5 -3 -11 -1 -14 4 -4
5 2 8 11 7 9 -2 18 -8 19 -15z m-58 -9 c2 -6 -6 -10 -16 -9 -12 1 -18 6 -15
14 6 16 25 13 31 -5z m-130 -23 c-3 -8 -7 -3 -11 10 -4 17 -3 21 5 13 5 -5 8
-16 6 -23z m52 -3 c0 -2 -7 -7 -16 -10 -8 -3 -12 -2 -9 4 6 10 25 14 25 6z
m40 -20 c0 -18 -20 -33 -42 -33 -23 0 -12 12 10 12 10 0 16 7 16 18 -1 9 2 17
7 17 5 0 9 -6 9 -14z m-123 -18 c-3 -8 -6 -5 -6 6 -1 11 2 17 5 13 3 -3 4 -12
1 -19z m68 -38 c17 -18 17 -20 2 -14 -9 3 -17 10 -17 16 0 5 -5 6 -12 2 -7 -4
-8 -3 -4 4 9 16 10 15 31 -8z m-31 -28 c3 -5 -5 -8 -17 -8 -13 1 -21 -4 -19
-12 1 -8 -2 -11 -8 -7 -8 5 -7 11 1 21 13 15 35 19 43 6z m-101 -10 c4 8 6 7
6 -4 1 -10 -3 -18 -8 -18 -5 0 -15 8 -22 18 -13 15 -12 16 3 4 13 -10 17 -10
21 0z m157 -13 c0 -6 -4 -7 -10 -4 -5 3 -10 11 -10 16 0 6 5 7 10 4 6 -3 10
-11 10 -16z m-120 -3 c0 -2 -7 -9 -15 -16 -13 -11 -14 -10 -9 4 5 14 24 23 24
12z m-38 -60 c10 5 10 4 1 -6 -15 -17 -33 -4 -32 23 0 22 0 22 10 -1 5 -15 14
-21 21 -16z m95 12 c-6 -22 -6 -22 8 -4 14 19 15 19 15 -7 0 -15 6 -27 13 -27
7 0 3 -7 -7 -15 -18 -14 -21 -13 -31 12 -11 26 -9 63 2 63 3 0 3 -10 0 -22z
m-116 -65 c13 -17 13 -17 -6 -3 -11 8 -22 16 -24 17 -2 2 0 3 6 3 6 0 17 -8
24 -17z m-6 -23 c6 -1 -3 -6 -20 -11 -19 -5 -31 -5 -33 1 -2 6 -9 7 -14 4 -7
-4 -8 -2 -4 4 5 9 32 10 71 2z m-52 -46 c6 1 22 7 34 14 14 8 24 9 28 2 4 -6
10 -8 15 -5 15 9 40 -7 40 -26 0 -23 -9 -24 -35 -5 -15 11 -25 12 -40 3 -18
-9 -19 -9 -6 6 9 12 10 17 2 17 -6 0 -14 -7 -17 -15 -7 -17 -34 -21 -34 -4 0
5 -4 8 -8 5 -4 -2 -9 5 -9 17 -2 19 0 19 8 5 5 -9 15 -15 22 -14z m-83 -4 c0
-5 -5 -10 -11 -10 -5 0 -7 5 -4 10 3 6 8 10 11 10 2 0 4 -4 4 -10z m31 -19 c6
10 9 8 9 -9 0 -14 -8 -26 -22 -31 l-21 -8 22 -15 22 -15 -28 0 c-15 0 -22 2
-15 4 10 4 10 8 1 19 -9 11 -6 16 12 23 13 5 18 10 12 10 -7 1 -13 9 -12 19 0
12 2 13 6 3 5 -11 7 -11 14 0z m117 -3 c-2 -7 5 -12 15 -10 9 2 17 -2 17 -8 0
-5 3 -9 8 -9 19 3 29 -2 29 -16 0 -8 -4 -15 -9 -15 -4 0 -8 5 -8 10 0 6 -6 10
-14 10 -8 0 -17 6 -20 13 -3 6 -3 -1 -1 -18 5 -42 5 -42 15 -20 7 15 9 16 9 4
1 -25 -26 -44 -42 -30 -8 6 -17 8 -20 4 -4 -3 -7 1 -7 10 0 15 -11 22 -32 18
-5 0 -8 4 -8 9 0 6 6 10 13 11 8 0 7 2 -2 6 -10 4 -3 12 20 24 41 22 40 22 37
7z m-148 -12 c0 -3 -4 -8 -10 -11 -5 -3 -10 -1 -10 4 0 6 5 11 10 11 6 0 10
-2 10 -4z m-52 -61 c-3 -3 -9 2 -12 12 -6 14 -5 15 5 6 7 -7 10 -15 7 -18z
m126 9 c3 -8 2 -12 -4 -9 -6 3 -10 10 -10 16 0 14 7 11 14 -7z m-204 -12 c0
-5 -7 -9 -15 -9 -8 0 -12 4 -9 9 3 4 9 8 15 8 5 0 9 -4 9 -8z m60 -17 c0 -15
-8 -28 -22 -35 -20 -9 -21 -9 -7 2 17 14 19 19 19 43 0 8 2 15 5 15 3 0 5 -11
5 -25z m97 -47 c1 -9 -3 -18 -10 -21 -9 -3 -13 8 -14 37 -2 35 0 38 10 21 6
-11 12 -27 14 -37z m95 42 c7 0 7 -5 -1 -13 -6 -8 -9 -16 -7 -18 2 -2 -2 -10
-10 -17 -8 -7 -14 -10 -14 -6 0 3 -8 0 -17 -7 -11 -10 -14 -10 -9 -1 4 6 3 12
-3 12 -5 0 -12 -6 -15 -12 -3 -7 -5 -4 -3 6 1 11 10 20 20 22 10 1 14 -2 11
-8 -4 -7 -2 -8 5 -4 17 11 3 26 -24 26 -13 0 -27 4 -30 10 -4 6 6 8 24 6 17
-2 31 1 31 6 0 6 7 7 16 4 9 -3 20 -6 26 -6z m-157 -21 c-3 -4 2 -9 10 -13 8
-3 15 -15 15 -27 l0 -22 -23 21 c-26 24 -31 49 -11 49 7 0 11 -4 9 -8z m-147
-11 c-2 -6 -10 -13 -16 -14 -7 -1 -8 0 -2 3 5 2 8 9 4 14 -3 5 0 9 6 9 7 0 10
-5 8 -12z m23 -61 c-10 -9 -11 -8 -5 6 3 10 9 15 12 12 3 -3 0 -11 -7 -18z
m-31 3 c0 -5 -8 -10 -17 -10 -15 0 -16 2 -3 10 19 12 20 12 20 0z m-143 -6
c-3 -3 -12 -4 -19 -1 -8 3 -5 6 6 6 11 1 17 -2 13 -5z m63 -9 c0 -2 -6 -5 -13
-8 -8 -3 -14 1 -14 8 0 7 6 11 14 8 7 -3 13 -6 13 -8z m83 -31 c-7 -19 -10
-18 -16 5 -3 13 -1 18 9 14 7 -2 10 -11 7 -19z m-100 -8 c-10 -13 -20 -22 -22
-20 -4 4 29 44 36 44 2 0 -4 -11 -14 -24z m161 -28 c-5 -8 -2 -9 9 -5 10 3 17
5 17 3 0 -3 3 -13 6 -23 5 -15 4 -15 -5 -3 -7 10 -11 11 -11 2 0 -9 -4 -10
-18 -1 -13 8 -17 20 -14 42 4 24 6 27 14 13 5 -9 6 -21 2 -28z m-176 -29 c-7
-4 -15 -6 -19 -3 -4 2 -12 -3 -19 -11 -10 -12 -10 -15 1 -16 8 0 5 -4 -6 -9
-27 -12 -45 -12 -45 0 0 5 7 7 15 3 12 -4 15 0 11 20 -4 23 -2 25 35 24 21 -1
33 -4 27 -8z m-187 -22 c-6 -8 -9 -16 -6 -19 3 -2 -2 -5 -10 -5 -13 0 -13 3 2
19 19 21 31 25 14 5z m49 -45 c0 -5 -7 -9 -15 -9 -8 0 -12 4 -9 9 3 4 9 8 15
8 5 0 9 -4 9 -8z m-80 -62 c0 -5 -2 -10 -4 -10 -3 0 -8 5 -11 10 -3 6 -1 10 4
10 6 0 11 -4 11 -10z m95 0 c-3 -5 -1 -10 6 -10 7 0 10 -3 6 -6 -9 -9 -28 6
-22 17 4 5 8 9 11 9 3 0 2 -4 -1 -10z m141 -24 c4 -25 -11 -19 -24 10 -11 22
-10 24 5 16 9 -6 18 -17 19 -26z m59 15 c3 -5 1 -12 -5 -16 -5 -3 -10 1 -10 9
0 18 6 21 15 7z m-278 -71 c0 -16 -4 -27 -9 -24 -14 9 -30 -7 -20 -19 5 -7 4
-21 -3 -34 -13 -25 -27 -21 -18 4 4 9 -2 22 -13 31 -15 11 -15 13 -2 9 9 -3
24 3 34 14 9 10 14 19 10 19 -5 0 13 26 20 30 0 0 1 -13 1 -30z m63 20 c0 -5
-4 -10 -10 -10 -5 0 -10 5 -10 10 0 6 5 10 10 10 6 0 10 -4 10 -10z m-160 -25
c11 -13 10 -14 -4 -9 -10 4 -16 1 -16 -7 0 -7 -2 -10 -5 -7 -5 5 4 38 10 38 1
0 8 -7 15 -15z m165 -25 c3 -5 -1 -10 -10 -10 -9 0 -13 5 -10 10 3 6 8 10 10
10 2 0 7 -4 10 -10z m-245 -36 c0 -8 -19 -13 -24 -6 -3 5 1 9 9 9 8 0 15 -2
15 -3z m105 -14 c3 -5 1 -10 -4 -10 -6 0 -11 5 -11 10 0 6 2 10 4 10 3 0 8 -4
11 -10z m-139 -93 c2 -14 0 -28 -6 -32 -6 -3 -7 1 -4 9 3 9 2 16 -4 16 -6 0
-8 9 -5 20 7 25 12 21 19 -13z m83 -18 c-13 -10 -28 -19 -33 -19 -6 0 -1 7 10
15 18 13 18 14 -5 8 -16 -4 -22 -3 -17 5 3 6 20 10 37 10 l31 -1 -23 -18z
m-59 -13 c0 -2 -8 -10 -17 -17 -16 -13 -17 -12 -4 4 13 16 21 21 21 13z m-40
-31 c0 -2 -10 -9 -22 -15 -22 -11 -22 -10 -4 4 21 17 26 19 26 11z m-122 -30
c-3 -3 -9 2 -12 12 -6 14 -5 15 5 6 7 -7 10 -15 7 -18z m72 -10 c7 -9 8 -15 2
-15 -5 0 -12 7 -16 15 -3 8 -4 15 -2 15 2 0 9 -7 16 -15z m-180 -14 c0 -5 -7
-12 -16 -15 -14 -5 -15 -4 -4 9 14 17 20 19 20 6z m114 -9 c3 -5 -1 -9 -9 -9
-8 0 -12 4 -9 9 3 4 7 8 9 8 2 0 6 -4 9 -8z m34 -19 c9 -17 9 -22 -3 -27 -8
-3 -17 0 -21 6 -5 7 -2 8 6 3 10 -6 11 -1 6 21 -8 31 -5 31 12 -3z m-252 -30
c0 -9 10 -22 22 -29 13 -6 19 -15 14 -18 -6 -3 -14 -1 -18 5 -4 8 -9 7 -16 -2
-8 -11 -9 -10 -5 3 3 9 1 18 -5 20 -7 3 -9 12 -5 21 8 22 15 22 13 0z m61 11
c-3 -3 -12 -4 -19 -1 -8 3 -5 6 6 6 11 1 17 -2 13 -5z m116 0 c-7 -3 -9 -13
-6 -22 4 -14 3 -14 -5 -2 -12 16 -7 30 11 29 9 0 9 -2 0 -5z m40 -18 c4 -10 0
-12 -15 -8 -15 4 -17 7 -6 13 17 11 15 11 21 -5z m-79 -23 c7 -17 -6 -17 -23
0 -11 10 -12 7 -6 -13 5 -19 4 -21 -4 -10 -10 14 -16 7 -11 -15 1 -5 -5 -4
-12 4 -10 11 -10 14 0 18 6 3 12 11 12 18 0 17 38 15 44 -2z m-204 -39 c0 -8
-19 -13 -24 -6 -3 5 1 9 9 9 8 0 15 -2 15 -3z m57 -29 c0 -17 -13 -20 -21 -6
-4 5 0 12 6 14 7 3 13 6 14 6 0 1 1 -6 1 -14z m78 5 c-3 -5 1 -10 10 -10 11 0
15 -5 12 -14 -3 -7 -1 -18 4 -23 6 -6 4 -10 -6 -10 -8 0 -15 8 -15 18 0 9 -5
19 -12 21 -10 4 -4 28 8 28 3 0 2 -4 -1 -10z m-25 -18 c0 -4 -10 -9 -22 -9
-18 -2 -20 0 -8 7 18 12 30 13 30 2z m-30 -30 c0 -5 -7 -9 -15 -9 -8 0 -12 4
-9 9 3 4 9 8 15 8 5 0 9 -4 9 -8z m28 -6 c-7 -8 -15 -12 -17 -11 -5 6 10 25
20 25 5 0 4 -6 -3 -14z m-118 -16 c0 -5 -5 -10 -11 -10 -5 0 -7 5 -4 10 3 6 8
10 11 10 2 0 4 -4 4 -10z m30 0 c0 -5 -2 -10 -4 -10 -3 0 -8 5 -11 10 -3 6 -1
10 4 10 6 0 11 -4 11 -10z m-63 -52 c-3 -8 -6 -5 -6 6 -1 11 2 17 5 13 3 -3 4
-12 1 -19z m118 12 c3 -5 1 -10 -4 -10 -6 0 -11 5 -11 10 0 6 2 10 4 10 3 0 8
-4 11 -10z m-188 -16 c-3 -3 -12 -4 -19 -1 -8 3 -5 6 6 6 11 1 17 -2 13 -5z
m128 -24 c7 0 15 5 17 12 3 8 12 6 29 -6 13 -10 16 -16 7 -13 -23 8 -31 -20
-10 -32 15 -9 15 -10 -3 -11 -19 -1 -19 -1 -2 -14 11 -8 14 -17 8 -20 -12 -8
-33 28 -23 39 4 4 0 6 -8 5 -30 -4 -35 0 -37 33 0 17 1 26 4 20 2 -7 11 -13
18 -13z m-55 4 c0 -8 -19 -13 -24 -6 -3 5 1 9 9 9 8 0 15 -2 15 -3z m-74 -44
c-1 -31 -20 -47 -32 -28 -5 7 -2 8 6 3 10 -6 11 -2 7 17 -6 24 -1 38 13 38 4
0 7 -13 6 -30z m-95 -13 c-10 -9 -11 -8 -5 6 3 10 9 15 12 12 3 -3 0 -11 -7
-18z m173 2 c-4 -8 1 -9 15 -4 13 4 28 1 36 -5 20 -16 20 -44 1 -37 -11 4 -13
1 -9 -11 3 -9 3 -14 -2 -10 -4 4 -15 2 -24 -5 -14 -11 -14 -10 -2 6 7 9 10 17
5 17 -4 0 -3 5 4 12 15 15 15 28 1 28 -5 0 -8 -3 -6 -7 3 -5 -2 -15 -11 -23
-14 -13 -15 -12 -9 3 3 9 2 19 -3 22 -13 8 -13 25 1 25 5 0 7 -5 3 -11z m-170
-44 c4 -13 2 -14 -14 -5 -23 13 -26 20 -6 20 8 0 16 -7 20 -15z m-1 -24 c31
-16 33 -26 12 -47 -12 -13 -15 -11 -23 18 -5 18 -14 32 -21 31 -6 -2 -11 2
-11 8 0 6 3 9 8 7 4 -2 19 -10 35 -17z m-49 -27 c3 -8 2 -12 -4 -9 -6 3 -10
10 -10 16 0 14 7 11 14 -7z m106 -15 c0 -28 -15 -23 -18 7 -1 14 2 23 8 19 6
-3 10 -15 10 -26z m-109 -34 c-4 -5 -8 -23 -10 -40 -2 -16 -7 -35 -12 -42 -6
-6 -6 -12 -1 -15 5 -1 6 -12 1 -23 -7 -18 -8 -18 -8 -2 -1 10 -5 16 -10 12 -5
-3 -12 -1 -16 5 -4 6 -10 8 -15 5 -4 -3 -14 3 -21 13 -13 15 -12 16 4 3 9 -7
17 -10 17 -6 0 4 6 2 14 -4 11 -9 15 -8 20 5 3 9 3 21 -1 26 -3 7 -1 8 5 4 7
-4 12 -1 12 9 0 9 -4 14 -8 11 -5 -3 -9 1 -9 8 0 8 7 12 16 9 11 -3 10 0 -4
13 -18 15 -18 16 -2 10 15 -5 17 -2 12 16 -6 18 -5 19 8 7 8 -8 12 -18 8 -24z
m-217 0 c11 -8 18 -17 15 -19 -2 -2 -15 4 -28 15 -27 22 -15 26 13 4z m283
-31 c-3 -3 -12 -4 -19 -1 -8 3 -5 6 6 6 11 1 17 -2 13 -5z m-2 -24 c-3 -5 -12
-10 -18 -10 -7 0 -6 4 3 10 19 12 23 12 15 0z m-18 -65 c0 -8 -7 -17 -15 -20
-12 -4 -12 -8 -1 -22 12 -14 10 -14 -13 1 -16 10 -28 21 -28 24 0 3 3 3 6 0 3
-4 14 2 25 13 23 23 26 23 26 4z m-721 -357 c4 -7 3 -8 -4 -4 -7 4 -12 2 -12
-5 0 -7 -3 -10 -6 -6 -6 5 3 27 11 27 2 0 7 -5 11 -12z m82 -43 c-3 -3 -9 2
-12 12 -6 14 -5 15 5 6 7 -7 10 -15 7 -18z m132 -73 c3 -2 -10 -2 -27 1 -26 4
-33 2 -33 -11 0 -14 -2 -14 -9 -3 -5 7 -14 11 -20 7 -6 -4 -9 -2 -5 7 3 8 16
13 30 11 13 -1 24 2 24 8 0 6 7 5 18 -3 9 -7 19 -15 22 -17z m-217 -7 c-3 -9
-8 -14 -10 -11 -3 3 -2 9 2 15 9 16 15 13 8 -4z m47 -10 c0 -8 -2 -15 -4 -15
-2 0 -6 7 -10 15 -3 8 -1 15 4 15 6 0 10 -7 10 -15z m185 -24 c-2 -2 -12 0
-22 4 -10 5 -22 7 -26 6 -5 -1 -6 3 -3 8 4 5 16 5 30 -2 14 -7 23 -14 21 -16z
m20 19 c3 -6 -1 -7 -9 -4 -18 7 -21 14 -7 14 6 0 13 -4 16 -10z m16 -41 c-9
-22 -10 -22 -10 -3 -1 11 2 24 6 27 12 12 14 0 4 -24z m-74 -4 c0 -18 -20 -26
-38 -14 -10 6 -10 9 -1 9 6 0 12 7 12 15 0 8 6 12 13 9 8 -3 14 -11 14 -19z
m176 -29 c42 -30 45 -34 26 -39 -11 -3 -18 -3 -15 0 7 8 -30 41 -55 48 -18 6
-27 25 -11 25 4 0 28 -15 55 -34z m-262 -23 c13 -16 12 -17 -3 -4 -10 7 -18
15 -18 17 0 8 8 3 21 -13z m-147 -2 c7 -10 -18 -34 -27 -25 -7 8 3 34 13 34 5
0 11 -4 14 -9z m90 -9 c3 -5 -1 -9 -9 -9 -8 0 -15 4 -15 9 0 4 4 8 9 8 6 0 12
-4 15 -8z m-206 -37 c-3 -3 -9 2 -12 12 -6 14 -5 15 5 6 7 -7 10 -15 7 -18z
m182 1 c0 -2 -7 -6 -15 -10 -8 -3 -15 -1 -15 4 0 6 7 10 15 10 8 0 15 -2 15
-4z m-246 -62 c3 -8 2 -12 -4 -9 -6 3 -10 10 -10 16 0 14 7 11 14 -7z m209
-21 c-3 -7 -10 -13 -16 -13 -8 0 -8 3 0 11 6 6 9 19 6 28 -4 13 -3 13 5 2 6
-8 8 -20 5 -28z m-123 21 c0 0 -10 -9 -22 -20 -16 -13 -19 -14 -10 -2 10 13
10 17 0 21 -7 3 -3 4 10 4 12 -1 22 -2 22 -3z m280 -4 c0 -5 -4 -10 -10 -10
-5 0 -10 5 -10 10 0 6 5 10 10 10 6 0 10 -4 10 -10z m-262 -43 c9 3 14 3 11
-1 -4 -4 -16 -8 -27 -11 -16 -3 -19 0 -15 13 4 9 8 11 10 5 3 -7 12 -9 21 -6z
m59 -2 c0 -8 -4 -15 -9 -15 -4 0 -8 5 -8 11 0 5 -4 7 -10 4 -5 -3 -10 -1 -10
4 0 6 8 11 18 11 10 0 19 -7 19 -15z m-151 -24 c0 -11 -4 -17 -8 -15 -4 3 -8
12 -8 20 0 8 4 14 8 14 4 0 8 -9 8 -19z m76 -8 c-6 -2 -10 -8 -7 -13 7 -11
-22 -7 -32 5 -4 4 -3 5 4 1 6 -3 14 -2 18 4 3 5 12 10 18 9 9 0 8 -2 -1 -6z
m73 -3 c3 -5 1 -10 -4 -10 -6 0 -11 5 -11 10 0 6 2 10 4 10 3 0 8 -4 11 -10z
m-87 -51 c14 0 13 -2 -3 -8 -14 -6 -22 -4 -27 8 -10 25 -9 38 3 19 5 -10 18
-18 27 -19z m42 0 c0 -5 -4 -9 -10 -9 -5 0 -10 7 -10 16 0 8 5 12 10 9 6 -3
10 -10 10 -16z m-96 -11 c-3 -4 -12 -4 -22 -1 -14 6 -15 4 -5 -8 10 -13 10
-16 0 -16 -7 0 -14 9 -14 19 -1 13 5 17 22 16 13 -1 21 -6 19 -10z m-60 -23
c-4 -8 -11 -12 -16 -9 -6 4 -5 10 3 15 19 12 19 11 13 -6z m-44 -39 c0 -2 -11
-6 -25 -8 -13 -3 -22 -1 -19 3 5 9 44 13 44 5z m-115 -26 c3 -5 1 -10 -4 -10
-6 0 -11 5 -11 10 0 6 2 10 4 10 3 0 8 -4 11 -10z m159 -5 c-4 -8 -13 -15 -20
-15 -12 0 -12 3 -2 15 17 19 29 19 22 0z m-277 -17 c-3 -8 -6 -5 -6 6 -1 11 2
17 5 13 3 -3 4 -12 1 -19z m398 13 c3 -5 2 -12 -3 -15 -5 -3 -9 1 -9 9 0 17 3
19 12 6z m-198 -57 c-3 -3 -12 -4 -19 -1 -8 3 -5 6 6 6 11 1 17 -2 13 -5z
m-117 -24 c0 -5 -2 -10 -4 -10 -3 0 -8 5 -11 10 -3 6 -1 10 4 10 6 0 11 -4 11
-10z m-129 -63 c-10 -9 -11 -8 -5 6 3 10 9 15 12 12 3 -3 0 -11 -7 -18z m89
17 c0 -8 -19 -13 -24 -6 -3 5 1 9 9 9 8 0 15 -2 15 -3z m32 -35 c5 -3 -5 -6
-22 -6 -35 0 -35 0 -13 23 14 13 18 14 22 3 2 -8 8 -17 13 -20z m-52 11 c0 -5
-4 -10 -10 -10 -5 0 -10 5 -10 10 0 6 5 10 10 10 6 0 10 -4 10 -10z m30 -32
c0 -4 9 -5 20 -3 24 5 25 -4 6 -31 -8 -10 -18 -15 -22 -11 -5 4 -3 12 5 16 21
14 -15 22 -47 11 -25 -9 -26 -9 -8 5 19 15 19 15 -2 15 -12 0 -22 -4 -22 -10
0 -5 -5 -10 -11 -10 -8 0 -8 5 1 15 12 15 80 17 80 3z m-113 -30 c-3 -8 -6 -5
-6 6 -1 11 2 17 5 13 3 -3 4 -12 1 -19z m-46 -1 c-7 -7 -14 -8 -21 -1 -6 6 -2
10 12 11 16 2 18 -1 9 -10z m-107 -5 c3 -5 -1 -9 -9 -9 -8 0 -12 4 -9 9 3 4 7
8 9 8 2 0 6 -4 9 -8z m253 -5 c4 -8 16 -16 26 -20 19 -7 24 -28 5 -24 -13 2
-58 44 -58 53 0 9 20 3 27 -9z m-37 -22 c10 -12 10 -15 -2 -15 -8 0 -15 7 -15
15 0 8 1 15 2 15 2 0 8 -7 15 -15z m-100 -19 c0 -3 -4 -8 -10 -11 -5 -3 -10
-1 -10 4 0 6 5 11 10 11 6 0 10 -2 10 -4z m95 -16 c-3 -5 -1 -11 5 -15 5 -3
10 -1 10 6 0 7 3 9 7 6 3 -4 -1 -15 -10 -25 -10 -10 -14 -22 -10 -25 3 -4 2
-7 -4 -7 -6 0 -14 7 -17 16 -3 8 -2 12 3 9 5 -3 12 -1 16 5 5 9 -14 15 -37 11
-4 0 -5 5 -2 12 2 7 14 13 24 14 11 1 18 -2 15 -7z m-185 -25 c-16 -19 -27
-19 -27 -1 0 8 6 12 14 9 7 -3 13 1 13 8 0 7 3 9 6 6 4 -4 1 -13 -6 -22z m105
-5 c3 -5 1 -10 -4 -10 -6 0 -11 5 -11 10 0 6 2 10 4 10 3 0 8 -4 11 -10z m30
1 c3 -5 1 -12 -5 -16 -5 -3 -10 1 -10 9 0 18 6 21 15 7z m-114 -51 c-3 -3 -6
-11 -6 -19 0 -8 -8 -15 -17 -17 -20 -3 -25 12 -6 18 7 3 13 18 14 34 3 41 5
43 13 14 4 -14 5 -27 2 -30z m-75 3 c-10 -11 -19 -7 -22 10 -2 15 0 16 12 6 8
-6 12 -14 10 -16z m-84 -76 c11 -4 21 0 27 11 6 9 10 13 10 7 0 -5 -6 -19 -14
-29 -10 -13 -15 -15 -15 -6 0 7 -3 10 -7 7 -8 -9 -33 12 -33 27 0 8 3 8 8 0 4
-6 15 -13 24 -17z m138 14 c0 -6 -5 -13 -12 -17 -6 -4 -8 -3 -4 4 3 5 0 13 -6
15 -8 3 -6 6 5 6 9 1 17 -3 17 -8z m-188 -38 c-4 -20 -7 -23 -10 -10 -2 10 -8
14 -15 10 -7 -4 -6 1 2 10 20 25 29 21 23 -10z m-92 3 c0 -2 -7 -7 -16 -10 -8
-3 -12 -2 -9 4 6 10 25 14 25 6z m285 -6 c-3 -5 2 -11 12 -11 17 -1 17 -2 1
-6 -10 -2 -18 -8 -18 -13 0 -5 8 -7 18 -4 13 5 14 4 3 -4 -9 -7 -10 -12 -2
-16 15 -10 2 -29 -15 -22 -8 3 -14 1 -14 -5 0 -6 -5 -7 -11 -3 -8 4 -7 9 2 15
7 4 17 5 21 3 4 -3 5 1 2 9 -3 8 -13 14 -22 12 -9 -1 -11 0 -3 2 12 4 12 6 0
14 -11 7 -10 9 4 9 10 0 15 5 12 10 -4 6 -11 8 -16 5 -5 -4 -9 -1 -9 4 0 6 9
11 21 11 11 0 17 -4 14 -10z m-150 -26 c0 -5 -7 -10 -16 -12 -9 -1 -16 4 -16
11 0 8 7 14 16 12 9 -1 16 -6 16 -11z m38 1 c-3 -9 -8 -14 -10 -11 -3 3 -2 9
2 15 9 16 15 13 8 -4z m54 -7 c-3 -8 -6 -5 -6 6 -1 11 2 17 5 13 3 -3 4 -12 1
-19z m-167 1 c0 -5 5 -7 12 -3 7 4 8 3 4 -4 -4 -6 -13 -9 -21 -5 -17 6 -20 23
-5 23 6 0 10 -5 10 -11z m155 -27 c-6 -7 -34 11 -29 19 3 5 11 3 19 -4 7 -6
12 -13 10 -15z m-25 -8 l35 -14 -34 6 c-23 4 -31 3 -27 -5 4 -6 2 -11 -4 -11
-7 0 -10 6 -7 14 3 8 1 17 -6 20 -7 2 -7 4 -2 4 6 0 26 -6 45 -14z m-86 -19
c-4 -8 -11 -12 -16 -9 -6 4 -5 10 3 15 19 12 19 11 13 -6z m-97 -1 c-3 -3 -12
-4 -19 -1 -8 3 -5 6 6 6 11 1 17 -2 13 -5z m-23 -22 c3 -5 -1 -9 -9 -9 -8 0
-12 4 -9 9 3 4 7 8 9 8 2 0 6 -4 9 -8z m-116 -47 c3 -3 -4 -4 -16 -2 -12 2
-24 6 -28 10 -4 3 4 4 16 2 12 -2 25 -7 28 -10z m27 -25 c-3 -5 -12 -10 -18
-10 -7 0 -6 4 3 10 19 12 23 12 15 0z m40 -20 c3 -6 -1 -7 -9 -4 -18 7 -21 14
-7 14 6 0 13 -4 16 -10z m-79 -12 c4 -7 3 -8 -4 -4 -7 4 -12 2 -12 -5 0 -7 -3
-10 -6 -6 -6 5 3 27 11 27 2 0 7 -5 11 -12z m-61 -28 c-3 -5 -12 -10 -18 -10
-7 0 -6 4 3 10 19 12 23 12 15 0z m45 -20 c3 -1 9 -2 13 -1 5 1 6 -3 2 -9 -5
-8 -11 -8 -19 -1 -7 6 -15 8 -18 5 -3 -3 -9 -1 -12 4 -5 9 14 9 34 2z m-115
-34 c0 -15 -4 -21 -9 -16 -5 5 -6 16 -3 24 9 22 12 20 12 -8z m30 -22 c0 -12
-3 -20 -7 -17 -5 2 -8 -1 -8 -7 0 -6 -5 -8 -11 -4 -8 5 -7 9 1 14 7 4 10 14 7
22 -3 8 0 15 6 15 7 0 12 -10 12 -23z m75 14 c0 -11 -12 -10 -30 2 -12 7 -10
9 8 7 12 0 22 -5 22 -9z m-130 -119 c13 -9 13 -9 0 -7 -9 2 -16 -1 -17 -7 0
-5 3 -9 8 -8 4 2 6 -4 3 -12 -7 -18 7 -20 25 -2 10 10 11 9 6 -5 -4 -10 -11
-18 -16 -18 -5 0 -14 -10 -18 -22 -8 -20 -9 -19 -9 10 1 18 -2 35 -5 39 -4 3
-7 -1 -7 -10 0 -10 -8 -17 -17 -17 -14 0 -15 2 -5 9 12 7 18 24 21 54 1 10 13
9 31 -4z m170 -19 c0 -5 -7 -7 -15 -4 -8 4 -12 10 -9 15 6 11 24 2 24 -11z
m-246 -49 c11 -12 25 -17 34 -14 16 5 16 4 0 -12 -16 -17 -18 -17 -34 -1 -9 9
-23 15 -30 12 -8 -3 -14 -1 -14 4 0 6 5 10 11 10 5 0 7 5 4 10 -11 18 11 11
29 -9z m96 -21 c6 -11 7 -20 2 -20 -6 0 -12 9 -15 20 -3 11 -3 20 -1 20 2 0 8
-9 14 -20z m-195 -59 c-6 -5 -25 10 -25 20 0 5 6 4 14 -3 8 -7 12 -15 11 -17z
m81 -1 c16 0 8 -26 -17 -51 -16 -16 -17 -16 -29 6 -16 29 -6 59 16 51 9 -3 22
-6 30 -6z m-93 -25 c-9 -7 -23 -11 -30 -8 -19 8 8 31 29 25 17 -4 17 -5 1 -17z
m22 -15 c3 -5 1 -10 -4 -10 -6 0 -11 5 -11 10 0 6 2 10 4 10 3 0 8 -4 11 -10z
m-125 -35 c5 3 12 1 15 -5 4 -6 1 -9 -7 -8 -15 3 -12 -31 4 -47 7 -7 8 -2 3
15 -4 18 -3 21 3 11 11 -16 44 -8 40 10 -2 6 4 14 12 16 12 4 12 3 1 -5 -10
-8 -9 -12 8 -24 18 -13 19 -17 6 -21 -8 -4 -15 -2 -15 3 0 6 -11 5 -25 -2 -14
-6 -25 -15 -25 -20 0 -19 -25 -1 -30 22 -3 14 -12 25 -20 25 -8 0 -16 5 -16
10 -1 6 2 9 7 7 5 -1 13 6 16 15 4 11 8 13 11 5 2 -7 8 -10 12 -7z m-249 -158
c-10 -9 -11 -8 -5 6 3 10 9 15 12 12 3 -3 0 -11 -7 -18z m9 -37 c0 -5 -2 -10
-4 -10 -3 0 -8 5 -11 10 -3 6 -1 10 4 10 6 0 11 -4 11 -10z m-32 -74 c-7 -8
-15 -12 -17 -11 -5 6 10 25 20 25 5 0 4 -6 -3 -14z m-8 -38 c0 -4 -5 -10 -11
-14 -8 -5 -8 -9 1 -14 7 -4 8 -10 3 -13 -5 -3 -20 3 -33 13 -23 18 -23 19 -4
14 12 -3 25 0 30 7 5 9 2 11 -9 6 -12 -4 -14 -2 -10 10 5 12 3 14 -7 8 -9 -5
-11 -4 -6 3 5 9 12 8 26 -1 11 -6 20 -15 20 -19z m100 7 c0 -15 -27 -28 -41
-19 -5 3 -9 13 -8 22 0 11 3 12 6 5 2 -7 12 -13 21 -12 11 0 12 2 5 6 -7 2
-13 9 -13 14 0 4 7 6 15 3 8 -4 15 -12 15 -19z m-175 -45 c-7 -22 20 -29 28
-7 3 7 6 5 6 -5 1 -12 -6 -18 -19 -18 -11 0 -20 -4 -20 -10 0 -5 7 -10 15 -10
23 0 18 -16 -5 -17 -11 -1 -20 4 -20 13 0 13 -12 19 -33 15 -5 -1 -6 3 -3 8 3
5 16 7 29 4 12 -3 18 -1 12 4 -14 11 -18 36 -5 28 5 -3 10 -1 10 4 0 6 3 11 6
11 3 0 2 -9 -1 -20z m69 -52 c-3 -5 -2 -8 3 -7 20 3 25 -2 13 -16 -15 -18 -30
-10 -30 16 0 14 -4 18 -12 13 -9 -5 -8 -2 1 10 11 13 16 14 22 4 4 -6 5 -16 3
-20z m-101 -28 c-3 -11 -10 -23 -16 -27 -5 -3 -8 -2 -5 3 3 5 8 17 11 27 9 24
16 22 10 -3z m-49 -50 c10 -13 9 -13 -6 -1 -10 7 -18 21 -17 30 0 13 1 14 6 1
3 -8 11 -22 17 -30z m-114 10 c0 -5 -5 -10 -11 -10 -5 0 -7 5 -4 10 3 6 8 10
11 10 2 0 4 -4 4 -10z m172 -14 c14 -21 8 -30 -8 -10 -8 10 -13 14 -10 7 10
-19 -4 -42 -25 -40 -10 1 -21 7 -24 14 -3 10 0 11 15 3 20 -11 39 3 20 15 -5
3 -10 10 -10 14 0 12 34 9 42 -3z m-153 -59 c8 -10 7 -14 -2 -14 -8 0 -14 6
-14 14 0 7 1 13 2 13 2 0 8 -6 14 -13z m68 6 c-9 -2 -14 -9 -11 -15 4 -7 2 -8
-5 -4 -15 10 -4 26 17 25 15 -1 15 -2 -1 -6z m-194 -99 c3 -16 0 -23 -7 -21
-6 2 -10 12 -8 21 2 10 -3 25 -10 34 -11 15 -11 15 3 4 9 -7 19 -24 22 -38z
m24 4 c-3 -8 -6 -5 -6 6 -1 11 2 17 5 13 3 -3 4 -12 1 -19z m60 -70 c-14 -22
-23 -23 -30 -4 -6 14 6 23 30 23 8 0 8 -5 0 -19z m-157 2 c0 -5 -5 -10 -11
-10 -5 0 -7 5 -4 10 3 6 8 10 11 10 2 0 4 -4 4 -10z m120 -18 c0 -4 -12 -13
-28 -19 l-27 -13 22 19 c12 10 19 22 15 26 -4 5 -1 5 6 1 6 -4 12 -10 12 -14z
m-170 -92 c0 -5 -5 -10 -11 -10 -5 0 -7 5 -4 10 3 6 8 10 11 10 2 0 4 -4 4
-10z m-85 -9 c3 -5 2 -12 -3 -15 -5 -3 -9 1 -9 9 0 17 3 19 12 6z m63 -26 c-3
-3 -9 2 -12 12 -6 14 -5 15 5 6 7 -7 10 -15 7 -18z m58 10 c-3 -23 -26 -43
-26 -24 0 8 5 20 12 27 15 15 17 15 14 -3z m-147 -45 c-7 -5 -19 -6 -26 -3
-11 5 -12 8 -2 13 7 5 19 6 26 3 11 -5 12 -8 2 -13z m-24 -20 c3 -6 -1 -7 -9
-4 -18 7 -21 14 -7 14 6 0 13 -4 16 -10z m-7 -40 c-11 -18 -28 -27 -28 -16 0
6 30 36 36 36 2 0 -1 -9 -8 -20z m-143 -19 c3 -5 2 -12 -3 -15 -5 -3 -9 1 -9
9 0 17 3 19 12 6z m111 -23 c4 -7 4 -10 -1 -6 -4 4 -15 2 -24 -5 -14 -11 -14
-10 -2 6 16 20 18 21 27 5z m-45 -102 c5 3 7 9 5 13 -3 4 5 8 17 8 17 2 19 0
7 -7 -13 -9 -13 -10 0 -10 8 -1 4 -6 -9 -11 -18 -7 -28 -5 -42 7 -11 10 -19
22 -19 28 0 6 7 0 16 -12 8 -12 20 -20 25 -16z m-106 14 c3 -5 1 -10 -4 -10
-6 0 -11 5 -11 10 0 6 2 10 4 10 3 0 8 -4 11 -10z m2 -55 c0 -6 -8 -11 -17
-11 -9 0 -17 6 -17 12 0 7 8 12 17 11 9 0 17 -6 17 -12z m28 -45 c-1 -16 -5
-33 -10 -37 -4 -5 -5 -2 -1 5 4 7 1 12 -9 12 -10 0 -13 -4 -8 -12 4 -7 8 -19
9 -26 2 -10 -1 -11 -12 -1 -8 6 -14 25 -14 41 0 25 3 28 20 23 11 -4 20 -3 19
2 -2 11 0 23 4 23 2 0 3 -13 2 -30z m-60 -40 c0 -22 -29 -18 -33 3 -3 14 1 18
15 15 10 -2 18 -10 18 -18z m110 -5 c0 -27 -5 -31 -22 -14 -8 8 -13 7 -18 -2
-6 -8 -4 -10 6 -4 8 5 6 -1 -5 -13 -19 -22 -45 -20 -27 2 6 7 8 15 5 19 -3 3
4 8 15 12 12 3 21 11 21 16 0 5 6 9 13 9 6 0 12 -11 12 -25z m-125 -45 c0 -12
-2 -13 -9 -1 -6 10 -13 6 -27 -18 -17 -29 -19 -30 -26 -11 -4 11 -2 33 3 50
11 29 11 29 35 12 13 -9 23 -24 24 -32z m-123 -2 c-7 -10 -16 -17 -20 -15 -13
4 -9 22 6 22 6 0 11 9 9 20 -2 16 -1 17 7 6 6 -9 5 -21 -2 -33z m5 -37 c12 6
18 6 18 -1 0 -5 -3 -11 -7 -11 -45 -7 -63 -6 -58 2 4 5 1 9 -4 9 -6 0 -11 5
-11 11 0 6 9 4 22 -5 15 -11 26 -12 40 -5z m138 9 c0 -5 -5 -10 -11 -10 -5 0
-7 5 -4 10 3 6 8 10 11 10 2 0 4 -4 4 -10z m-83 -51 c2 -20 -18 -31 -36 -19
-10 6 -10 9 -1 15 9 6 9 10 -1 16 -10 6 -6 8 12 7 16 -1 26 -8 26 -19z m-107
-19 c0 -5 -5 -10 -11 -10 -5 0 -7 5 -4 10 3 6 8 10 11 10 2 0 4 -4 4 -10z m10
-55 c0 -2 -9 -9 -20 -15 -12 -6 -20 -7 -20 -1 0 5 8 12 18 14 9 3 18 5 20 6 1
0 2 -1 2 -4z m-60 -42 c0 -20 -23 -11 -26 9 -1 11 3 15 12 11 8 -3 14 -12 14
-20z m-90 -23 c0 -5 -2 -10 -4 -10 -3 0 -8 5 -11 10 -3 6 -1 10 4 10 6 0 11
-4 11 -10z m-46 -53 c4 4 4 -1 0 -10 -3 -10 -7 -17 -8 -15 -1 2 -8 12 -16 23
-14 18 -13 19 1 8 9 -7 19 -10 23 -6z m126 -32 c0 -8 -7 -15 -15 -15 -8 0 -15
5 -15 11 0 5 5 7 10 4 6 -3 10 -1 10 4 0 6 2 11 5 11 3 0 5 -7 5 -15z m-63
-47 c-3 -8 -6 -5 -6 6 -1 11 2 17 5 13 3 -3 4 -12 1 -19z m-133 -12 c-3 -9
-12 -12 -22 -9 -15 6 -9 11 25 22 1 1 0 -5 -3 -13z m216 -23 c0 -19 -13 -9
-16 12 -1 8 2 13 7 9 5 -3 9 -12 9 -21z m-120 7 c0 -5 -5 -10 -11 -10 -5 0 -7
5 -4 10 3 6 8 10 11 10 2 0 4 -4 4 -10z m-127 -23 c3 -8 -1 -14 -8 -14 -7 0
-11 6 -8 14 3 7 6 13 8 13 2 0 5 -6 8 -13z m31 -13 c3 -8 2 -12 -4 -9 -6 3
-10 10 -10 16 0 14 7 11 14 -7z m106 12 c0 -3 -4 -8 -10 -11 -5 -3 -10 -1 -10
4 0 6 5 11 10 11 6 0 10 -2 10 -4z m-270 -20 c0 -2 -7 -7 -16 -10 -8 -3 -12
-2 -9 4 6 10 25 14 25 6z m274 -17 c-3 -5 -16 -9 -30 -9 -13 0 -24 -4 -24 -9
0 -5 10 -7 23 -3 18 4 20 3 10 -9 -6 -8 -11 -18 -12 -24 0 -13 -31 -19 -31 -6
0 6 8 8 18 5 16 -5 16 -5 0 6 -10 6 -17 21 -16 33 2 19 8 23 35 24 18 1 30 -3
27 -8z m-100 -22 c-4 -13 -2 -17 5 -13 7 5 8 1 4 -9 -5 -13 -7 -14 -14 -3 -5
7 -9 8 -9 3 0 -6 -9 -11 -21 -12 -21 -2 -21 -2 1 17 12 10 19 23 16 28 -3 5 1
9 10 9 10 0 12 -7 8 -20z m-176 -12 c-3 -3 -9 2 -12 12 -6 14 -5 15 5 6 7 -7
10 -15 7 -18z m132 5 c0 -5 -2 -10 -4 -10 -3 0 -8 5 -11 10 -3 6 -1 10 4 10 6
0 11 -4 11 -10z m-52 -31 c3 -6 9 -6 18 2 12 10 13 9 8 -5 -4 -11 -2 -16 7
-14 8 2 13 -3 11 -12 -3 -11 1 -11 16 3 21 19 42 22 42 6 0 -5 -4 -8 -9 -4 -6
3 -14 -2 -19 -12 -9 -15 -13 -16 -35 -4 -14 7 -30 10 -36 7 -10 -6 -15 6 -12
27 0 4 -10 7 -23 7 -14 0 -27 4 -30 9 -3 4 9 7 27 5 17 -2 34 -9 35 -15z
m-241 -31 c-3 -8 -6 -5 -6 6 -1 11 2 17 5 13 3 -3 4 -12 1 -19z m111 -23 c-3
-3 -9 2 -12 12 -6 14 -5 15 5 6 7 -7 10 -15 7 -18z m66 -6 c-3 -6 4 -9 18 -8
12 1 34 1 48 0 20 -1 22 -3 10 -11 -9 -6 -10 -10 -3 -10 23 0 24 20 1 29 l-23
10 23 0 c12 1 22 -4 22 -10 0 -6 9 -8 23 -4 21 6 21 6 -3 -14 -14 -11 -29 -21
-33 -21 -5 0 -5 -4 -2 -10 3 -5 -1 -10 -9 -10 -14 0 -20 12 -17 33 2 13 -17 7
-23 -8 -3 -8 -1 -15 5 -15 5 0 4 -6 -3 -14 -9 -10 -15 -11 -20 -2 -4 6 -8 7
-8 3 0 -5 -5 -5 -12 -1 -7 5 -4 10 11 16 13 4 19 13 15 19 -4 8 -9 7 -15 -2
-7 -12 -9 -11 -10 1 0 8 -2 23 -4 33 -2 9 1 15 6 11 5 -3 7 -10 3 -15z m-24
-7 c0 -5 -12 -14 -26 -20 -15 -7 -22 -17 -18 -24 4 -7 3 -8 -4 -4 -7 4 -12 14
-12 22 0 8 5 12 10 9 6 -3 10 -1 10 5 0 6 4 9 9 5 5 -3 12 -1 16 5 8 12 15 13
15 2z m-150 -37 c-7 -8 -17 -15 -23 -15 -6 0 -2 7 9 15 25 19 30 19 14 0z m62
-17 c-8 -8 -9 -4 -5 13 4 13 8 18 11 10 2 -7 -1 -18 -6 -23z m85 17 c0 -8 -6
-16 -13 -19 -10 -4 -12 8 -5 32 3 9 18 -1 18 -13z m-102 -35 c3 -5 1 -10 -4
-10 -6 0 -11 5 -11 10 0 6 2 10 4 10 3 0 8 -4 11 -10z m-488 -36 c-3 -3 -12
-4 -19 -1 -8 3 -5 6 6 6 11 1 17 -2 13 -5z m516 -9 c-3 -9 -8 -14 -10 -11 -3
3 -2 9 2 15 9 16 15 13 8 -4z m-386 -11 c-3 -3 -12 -4 -19 -1 -8 3 -5 6 6 6
11 1 17 -2 13 -5z m86 -11 c-13 -2 -33 -2 -45 0 -13 2 -3 4 22 4 25 0 35 -2
23 -4z"/>
<path d="M9102 7044 c-7 -8 -8 -14 -3 -14 10 0 25 19 20 25 -2 1 -10 -3 -17
-11z"/>
<path d="M8520 6300 c0 -6 7 -10 15 -10 8 0 15 2 15 4 0 2 -7 6 -15 10 -8 3
-15 1 -15 -4z"/>
<path d="M8476 6253 c-3 -4 -6 -11 -6 -17 0 -6 5 -4 10 4 8 12 10 10 10 -8 0
-13 4 -20 10 -17 6 3 10 12 10 20 0 14 -24 27 -34 18z"/>
<path d="M3500 1570 c-6 -12 -9 -24 -7 -27 3 -2 11 5 17 17 6 12 9 24 7 27 -3
2 -11 -5 -17 -17z"/>
<path d="M9323 7135 c0 -7 3 -14 6 -13 24 2 31 -5 11 -11 -27 -7 -40 -38 -16
-38 8 0 12 6 9 14 -3 7 2 13 11 13 8 0 20 10 27 21 6 13 7 19 1 15 -6 -3 -13
0 -15 6 -4 10 -6 9 -6 -1 -1 -10 -4 -11 -14 -2 -10 8 -14 7 -14 -4z"/>
<path d="M9210 7020 c-11 -7 -11 -10 -2 -10 8 0 10 -5 6 -12 -6 -10 -5 -10 7
-1 12 10 18 10 29 0 8 -6 6 -2 -4 11 -11 12 -20 22 -20 22 -1 0 -8 -5 -16 -10z"/>
<path d="M9227 6977 c-4 -10 2 -14 19 -14 14 0 24 0 22 1 -2 1 -10 7 -19 14
-14 10 -18 10 -22 -1z"/>
<path d="M9092 6951 c-11 -7 -11 -9 1 -14 9 -3 18 1 21 9 6 16 -2 18 -22 5z"/>
<path d="M9360 6949 c0 -5 5 -7 10 -4 6 3 10 8 10 11 0 2 -4 4 -10 4 -5 0 -10
-5 -10 -11z"/>
<path d="M9210 6946 c0 -2 7 -7 16 -10 8 -3 12 -2 9 4 -6 10 -25 14 -25 6z"/>
<path d="M9110 6841 c0 -6 4 -13 10 -16 6 -3 7 1 4 9 -7 18 -14 21 -14 7z"/>
<path d="M9070 6835 c0 -2 6 -8 13 -14 10 -8 14 -7 14 2 0 8 -6 14 -14 14 -7
0 -13 -1 -13 -2z"/>
<path d="M9142 6818 c-14 -14 -16 -28 -3 -28 5 0 11 9 14 20 6 23 5 24 -11 8z"/>
<path d="M9040 6798 c0 -4 -8 -8 -17 -9 -15 0 -15 -2 2 -8 11 -5 25 -5 31 0 6
5 14 6 17 2 4 -3 7 0 7 8 0 8 -9 15 -20 15 -11 0 -20 -4 -20 -8z"/>
<path d="M8932 6784 c10 -10 20 -16 22 -13 3 3 -5 11 -17 18 -21 13 -21 12 -5
-5z"/>
<path d="M9151 6771 c-9 -6 -10 -11 -2 -15 6 -4 11 -2 11 5 0 8 5 7 18 -2 15
-13 16 -12 3 4 -7 9 -14 17 -15 17 0 0 -7 -4 -15 -9z"/>
<path d="M9079 6751 c14 -25 20 -27 17 -4 -2 9 -8 19 -15 21 -10 3 -10 0 -2
-17z"/>
<path d="M8965 6739 c-4 -6 -5 -12 -2 -15 2 -3 7 2 10 11 7 17 1 20 -8 4z"/>
<path d="M8828 6593 c7 -3 16 -2 19 1 4 3 -2 6 -13 5 -11 0 -14 -3 -6 -6z"/>
<path d="M8844 6582 c-17 -6 -19 -10 -10 -18 10 -9 16 -7 24 7 7 11 11 19 10
18 -2 -1 -13 -4 -24 -7z"/>
<path d="M9054 6565 c-10 -8 -14 -15 -8 -15 6 0 17 7 24 15 16 19 9 19 -16 0z"/>
<path d="M8867 6472 c4 -10 9 -10 22 0 9 7 17 13 19 14 2 1 -8 1 -21 0 -15 0
-23 -6 -20 -14z"/>
<path d="M8690 6455 c0 -8 4 -15 8 -15 5 0 9 7 9 15 0 8 -4 15 -9 15 -4 0 -8
-7 -8 -15z"/>
<path d="M8683 6415 c0 -8 4 -15 9 -15 4 0 8 4 8 9 0 6 -4 12 -8 15 -5 3 -9
-1 -9 -9z"/>
<path d="M8780 6386 c0 -2 9 -6 20 -9 11 -3 18 -1 14 4 -5 9 -34 13 -34 5z"/>
<path d="M8798 6333 c7 -3 16 -2 19 1 4 3 -2 6 -13 5 -11 0 -14 -3 -6 -6z"/>
<path d="M8620 6205 c-9 -10 -9 -15 -1 -15 6 0 11 5 11 11 0 8 6 7 18 -2 15
-13 16 -12 3 4 -16 21 -16 21 -31 2z"/>
<path d="M8726 6212 c-3 -5 1 -9 9 -9 8 0 12 4 9 9 -3 4 -7 8 -9 8 -2 0 -6 -4
-9 -8z"/>
<path d="M8570 6160 c-8 -5 -11 -10 -6 -10 5 0 3 -7 -4 -15 -9 -10 -9 -15 -1
-15 6 0 11 5 11 11 0 6 7 8 16 5 13 -5 14 -4 6 7 -7 8 -9 17 -5 20 9 10 0 8
-17 -3z"/>
<path d="M8510 6120 c0 -6 7 -10 15 -10 8 0 15 2 15 4 0 2 -7 6 -15 10 -8 3
-15 1 -15 -4z"/>
<path d="M8493 6090 c9 -13 23 -25 32 -26 22 -3 19 2 -17 27 l-32 23 17 -24z"/>
<path d="M8560 6100 c0 -5 5 -10 11 -10 5 0 7 5 4 10 -3 6 -8 10 -11 10 -2 0
-4 -4 -4 -10z"/>
<path d="M8260 6090 c-12 -8 -11 -12 7 -29 l22 -20 -3 24 c-3 32 -8 36 -26 25z"/>
<path d="M8475 6051 c-3 -5 -1 -12 5 -16 5 -3 10 1 10 9 0 18 -6 21 -15 7z"/>
<path d="M8598 6053 c7 -3 16 -2 19 1 4 3 -2 6 -13 5 -11 0 -14 -3 -6 -6z"/>
<path d="M8296 6024 c-4 -9 -4 -19 -1 -22 3 -3 5 0 5 7 0 7 4 9 10 6 6 -3 7 1
4 9 -8 20 -10 20 -18 0z"/>
<path d="M8368 6033 c7 -3 16 -2 19 1 4 3 -2 6 -13 5 -11 0 -14 -3 -6 -6z"/>
<path d="M8376 5994 c-5 -14 -4 -15 9 -4 17 14 19 20 6 20 -5 0 -12 -7 -15
-16z"/>
<path d="M8293 5965 c1 -20 -2 -29 -10 -27 -7 1 -13 -2 -13 -8 0 -14 16 -12
29 4 8 9 8 21 1 37 -9 23 -9 23 -7 -6z"/>
<path d="M8124 5956 c3 -21 24 -42 33 -33 4 4 -3 17 -14 29 -18 17 -21 18 -19
4z"/>
<path d="M8185 5950 c4 -6 11 -8 16 -5 14 9 11 15 -7 15 -8 0 -12 -5 -9 -10z"/>
<path d="M8419 5943 c-13 -16 -12 -17 4 -4 16 13 21 21 13 21 -2 0 -10 -8 -17
-17z"/>
<path d="M8175 5923 c1 -10 -2 -23 -7 -30 -5 -7 -5 -14 2 -18 7 -4 7 -12 0
-25 -7 -13 -6 -19 6 -24 12 -4 14 -1 9 14 -4 13 -2 20 7 20 9 1 7 5 -4 14 -17
12 -17 14 2 31 16 14 17 20 8 27 -20 12 -26 10 -23 -9z"/>
<path d="M8225 5930 c-3 -5 -1 -10 4 -10 6 0 11 5 11 10 0 6 -2 10 -4 10 -3 0
-8 -4 -11 -10z"/>
<path d="M8138 5903 c7 -3 16 -2 19 1 4 3 -2 6 -13 5 -11 0 -14 -3 -6 -6z"/>
<path d="M8204 5899 c-11 -18 14 -35 29 -20 10 10 8 11 -7 5 -16 -6 -18 -4
-13 9 7 19 2 23 -9 6z"/>
<path d="M8380 5860 c-9 -6 -10 -10 -3 -10 6 0 15 5 18 10 8 12 4 12 -15 0z"/>
<path d="M7949 5703 c-13 -16 -12 -17 4 -4 9 7 17 15 17 17 0 8 -8 3 -21 -13z"/>
<path d="M7985 5700 c4 -6 -9 -17 -27 -25 -28 -13 -29 -15 -8 -13 33 4 70 48
39 48 -5 0 -7 -5 -4 -10z"/>
<path d="M7796 5615 c-3 -8 -1 -15 3 -15 5 0 11 7 15 15 3 8 1 15 -3 15 -5 0
-11 -7 -15 -15z"/>
<path d="M7910 5620 c-9 -6 -10 -10 -3 -10 6 0 15 5 18 10 8 12 4 12 -15 0z"/>
<path d="M7790 5580 c0 -5 5 -10 11 -10 5 0 7 5 4 10 -3 6 -8 10 -11 10 -2 0
-4 -4 -4 -10z"/>
<path d="M7920 5579 c0 -5 5 -7 10 -4 6 3 10 8 10 11 0 2 -4 4 -10 4 -5 0 -10
-5 -10 -11z"/>
<path d="M7810 5531 c0 -6 4 -12 8 -15 5 -3 9 1 9 9 0 8 -4 15 -9 15 -4 0 -8
-4 -8 -9z"/>
<path d="M7635 5479 c-10 -15 3 -25 16 -12 7 7 7 13 1 17 -6 3 -14 1 -17 -5z"/>
<path d="M7673 5453 c-7 -2 -13 -12 -13 -21 0 -13 -2 -13 -13 2 -11 15 -17 17
-35 7 -22 -11 -29 -22 -14 -20 20 3 23 -3 11 -18 -10 -11 -10 -14 -1 -9 7 4
12 1 12 -9 0 -9 -4 -14 -8 -11 -5 3 -9 -1 -9 -9 0 -8 4 -15 9 -15 4 0 8 5 8
11 0 5 5 7 10 4 6 -4 9 -1 8 6 -2 7 2 13 9 14 6 0 15 3 19 7 4 4 13 3 21 -4
15 -12 26 -6 29 17 1 8 -2 13 -7 9 -5 -3 -6 -10 -3 -16 4 -6 1 -8 -7 -6 -8 3
-13 11 -11 17 1 6 -3 11 -8 11 -7 0 -7 6 0 20 6 11 9 20 8 19 -2 0 -9 -3 -15
-6z m-13 -43 c17 0 4 -13 -16 -16 -9 -1 -13 0 -10 3 3 3 1 15 -5 27 -9 19 -9
19 4 4 8 -10 20 -18 27 -18z"/>
<path d="M7500 5340 c8 -5 23 -10 33 -10 10 0 15 -4 12 -10 -3 -5 -1 -10 5
-10 6 0 10 8 8 17 -2 12 -14 18 -38 20 -26 2 -31 0 -20 -7z"/>
<path d="M7571 5318 c-1 -16 4 -28 11 -28 6 0 8 3 5 7 -4 3 1 16 10 27 15 17
15 18 1 8 -13 -10 -17 -10 -21 0 -3 7 -6 1 -6 -14z"/>
<path d="M7526 5277 c3 -10 9 -15 12 -12 3 3 0 11 -7 18 -10 9 -11 8 -5 -6z"/>
<path d="M7553 5275 c0 -8 4 -12 9 -9 5 3 6 10 3 15 -9 13 -12 11 -12 -6z"/>
<path d="M7576 5262 c-3 -5 1 -9 9 -9 8 0 12 4 9 9 -3 4 -7 8 -9 8 -2 0 -6 -4
-9 -8z"/>
<path d="M7460 5242 c0 -11 27 -42 37 -42 3 0 -1 7 -8 17 -8 9 -13 19 -11 22
2 3 -1 7 -7 9 -6 2 -11 -1 -11 -6z"/>
<path d="M7517 5236 c-4 -10 -1 -13 9 -9 7 3 14 9 14 14 0 14 -17 10 -23 -5z"/>
<path d="M7435 5230 c-8 -13 -1 -24 14 -19 6 3 7 10 2 18 -6 10 -10 10 -16 1z"/>
<path d="M7345 5200 c-3 -5 1 -10 10 -10 9 0 13 5 10 10 -3 6 -8 10 -10 10 -2
0 -7 -4 -10 -10z"/>
<path d="M7380 5199 c0 -5 5 -7 10 -4 6 3 10 8 10 11 0 2 -4 4 -10 4 -5 0 -10
-5 -10 -11z"/>
<path d="M7630 5199 c0 -5 5 -7 10 -4 6 3 10 8 10 11 0 2 -4 4 -10 4 -5 0 -10
-5 -10 -11z"/>
<path d="M7430 5170 c0 -5 5 -10 11 -10 5 0 7 5 4 10 -3 6 -8 10 -11 10 -2 0
-4 -4 -4 -10z"/>
<path d="M7402 5137 c-8 -10 -6 -13 7 -13 11 0 17 6 14 13 -3 7 -6 13 -8 13
-1 0 -7 -6 -13 -13z"/>
<path d="M7436 5112 c-3 -5 1 -9 9 -9 8 0 12 4 9 9 -3 4 -7 8 -9 8 -2 0 -6 -4
-9 -8z"/>
<path d="M7315 5060 c-3 -6 1 -7 9 -4 18 7 21 14 7 14 -6 0 -13 -4 -16 -10z"/>
<path d="M7180 5042 c0 -7 -3 -11 -7 -10 -17 4 -53 -14 -53 -28 0 -8 -6 -13
-12 -11 -8 1 -13 -8 -12 -23 0 -14 5 -24 12 -23 6 2 9 -4 6 -12 -8 -19 -9 -19
-28 0 -8 8 -17 11 -20 6 -3 -5 4 -15 17 -24 25 -16 42 -5 42 28 0 15 7 20 25
21 14 0 24 6 23 12 -2 7 2 12 7 12 6 0 10 7 10 16 0 9 -5 12 -12 8 -9 -5 -8
-2 1 9 8 10 11 20 7 24 -3 3 -6 1 -6 -5z m-15 -62 c3 -6 -1 -7 -9 -4 -18 7
-21 14 -7 14 6 0 13 -4 16 -10z m-35 -4 c0 -11 -19 -15 -25 -6 -3 5 1 10 9 10
9 0 16 -2 16 -4z"/>
<path d="M7328 5028 c5 -5 16 -8 23 -6 8 3 3 7 -10 11 -17 4 -21 3 -13 -5z"/>
<path d="M7229 4993 c-13 -16 -12 -17 4 -4 16 13 21 21 13 21 -2 0 -10 -8 -17
-17z"/>
<path d="M7228 4949 c20 -23 21 -23 19 -1 0 10 -9 19 -18 19 -16 2 -17 0 -1
-18z"/>
<path d="M7143 4924 c-3 -9 2 -23 13 -32 12 -12 15 -12 7 -2 -6 8 -9 23 -8 33
4 21 -4 22 -12 1z"/>
<path d="M7228 4913 c7 -3 16 -2 19 1 4 3 -2 6 -13 5 -11 0 -14 -3 -6 -6z"/>
<path d="M7140 4868 c0 -9 7 -19 16 -22 15 -6 15 -4 3 11 -7 10 -15 20 -16 22
-2 2 -3 -3 -3 -11z"/>
<path d="M7220 4700 c0 -5 5 -10 11 -10 5 0 7 5 4 10 -3 6 -8 10 -11 10 -2 0
-4 -4 -4 -10z"/>
<path d="M6590 4280 c-12 -8 -11 -10 5 -10 12 0 16 -3 9 -8 -9 -5 -8 -11 2
-20 13 -11 14 -9 10 14 -6 33 -8 35 -26 24z"/>
<path d="M6515 4229 c-11 -17 1 -21 15 -4 8 9 8 15 2 15 -6 0 -14 -5 -17 -11z"/>
<path d="M6536 4203 c-6 -14 -5 -15 5 -6 7 7 10 15 7 18 -3 3 -9 -2 -12 -12z"/>
<path d="M6725 4210 c3 -5 8 -10 11 -10 2 0 4 5 4 10 0 6 -5 10 -11 10 -5 0
-7 -4 -4 -10z"/>
<path d="M6477 4179 c7 -7 15 -10 18 -7 3 3 -2 9 -12 12 -14 6 -15 5 -6 -5z"/>
<path d="M6801 4174 c0 -11 3 -14 6 -6 3 7 2 16 -1 19 -3 4 -6 -2 -5 -13z"/>
<path d="M6270 4083 c0 -15 15 -29 28 -27 26 3 26 5 8 19 -22 16 -36 19 -36 8z"/>
<path d="M6209 4036 c7 -8 20 -12 29 -9 14 3 18 -3 20 -28 3 -37 9 -49 25 -49
8 0 8 3 2 8 -14 10 -18 42 -5 42 6 0 8 5 5 10 -4 6 -11 7 -17 4 -7 -5 -8 -2
-3 6 10 17 -16 32 -32 18 -9 -7 -13 -7 -13 1 0 6 -5 11 -11 11 -8 0 -8 -4 0
-14z"/>
<path d="M6320 4040 c0 -5 5 -10 10 -10 6 0 10 5 10 10 0 6 -4 10 -10 10 -5 0
-10 -4 -10 -10z"/>
<path d="M6231 3987 c-8 -10 -7 -14 4 -14 8 0 15 6 15 14 0 7 -2 13 -4 13 -2
0 -9 -6 -15 -13z"/>
<path d="M6290 3974 c0 -2 9 -8 20 -14 15 -8 18 -8 14 3 -4 11 -34 21 -34 11z"/>
<path d="M6225 3949 c-4 -6 -5 -12 -2 -15 2 -3 7 2 10 11 7 17 1 20 -8 4z"/>
<path d="M5986 3814 l-7 -25 -18 22 c-14 17 -21 20 -36 12 -13 -8 -14 -12 -5
-18 7 -4 16 -2 21 6 6 10 8 8 7 -7 -1 -12 -9 -21 -18 -20 -9 1 -16 -9 -18 -26
-2 -16 2 -28 8 -28 7 0 9 8 5 23 -7 22 -7 22 9 2 11 -14 14 -15 10 -4 -3 10 1
19 11 23 9 3 14 2 11 -3 -7 -10 24 -25 33 -16 3 3 -1 10 -9 15 -9 6 -10 10 -3
10 6 0 15 -4 18 -10 3 -5 12 -10 18 -10 8 0 8 3 -1 9 -11 6 -10 10 4 15 10 4
25 -1 38 -11 15 -13 17 -14 8 -2 -6 9 -9 18 -6 22 6 6 -33 3 -51 -4 -5 -2 -11
1 -11 6 -1 6 2 9 7 7 6 -1 5 7 -1 18 -14 26 -17 25 -24 -6z"/>
<path d="M6080 3831 c0 -6 4 -13 10 -16 6 -3 7 1 4 9 -7 18 -14 21 -14 7z"/>
<path d="M6110 3836 c0 -3 9 -10 20 -16 11 -6 20 -8 20 -6 0 3 -9 10 -20 16
-11 6 -20 8 -20 6z"/>
<path d="M6030 3820 c0 -6 7 -10 15 -10 8 0 15 2 15 4 0 2 -7 6 -15 10 -8 3
-15 1 -15 -4z"/>
<path d="M5875 3760 c3 -5 10 -10 16 -10 5 0 9 5 9 10 0 6 -7 10 -16 10 -8 0
-12 -4 -9 -10z"/>
<path d="M5965 3711 c-3 -5 -1 -12 5 -16 5 -3 10 1 10 9 0 18 -6 21 -15 7z"/>
<path d="M6010 3670 c0 -6 7 -10 15 -10 8 0 15 2 15 4 0 2 -7 6 -15 10 -8 3
-15 1 -15 -4z"/>
<path d="M5940 3590 c0 -5 5 -10 11 -10 5 0 7 5 4 10 -3 6 -8 10 -11 10 -2 0
-4 -4 -4 -10z"/>
<path d="M5846 3525 c4 -8 10 -15 15 -15 4 0 6 7 3 15 -4 8 -10 15 -15 15 -4
0 -6 -7 -3 -15z"/>
<path d="M5729 3518 c-7 -13 -3 -58 6 -61 6 -3 10 10 10 29 0 19 -3 34 -7 34
-4 0 -9 -1 -9 -2z"/>
<path d="M5661 3484 c0 -11 3 -14 6 -6 3 7 2 16 -1 19 -3 4 -6 -2 -5 -13z"/>
<path d="M5680 3490 c0 -5 4 -10 9 -10 6 0 13 5 16 10 3 6 -1 10 -9 10 -9 0
-16 -4 -16 -10z"/>
<path d="M6090 3496 c0 -2 7 -7 16 -10 8 -3 12 -2 9 4 -6 10 -25 14 -25 6z"/>
<path d="M5818 3413 c7 -3 16 -2 19 1 4 3 -2 6 -13 5 -11 0 -14 -3 -6 -6z"/>
<path d="M5634 3398 c-3 -5 0 -7 7 -6 7 2 13 -1 14 -7 0 -5 4 -16 8 -23 10
-14 27 -7 26 11 0 9 -2 8 -6 -1 -2 -6 -9 -10 -13 -7 -13 8 0 36 14 28 6 -3 8
-2 3 2 -10 12 -47 14 -53 3z"/>
<path d="M5540 3341 c0 -6 4 -13 10 -16 6 -3 7 1 4 9 -7 18 -14 21 -14 7z"/>
<path d="M5506 3332 c-3 -5 1 -9 9 -9 8 0 15 4 15 9 0 4 -4 8 -9 8 -6 0 -12
-4 -15 -8z"/>
<path d="M5425 3280 c-3 -5 -14 -10 -24 -10 -11 0 -17 -8 -17 -24 0 -14 4 -22
8 -20 5 3 6 9 4 13 -3 4 6 14 19 21 14 7 25 17 25 22 0 11 -7 10 -15 -2z"/>
<path d="M5227 3183 c5 -15 3 -16 -8 -5 -7 6 -18 12 -23 12 -6 0 -4 -5 4 -10
8 -5 10 -10 3 -10 -15 0 -11 -92 5 -98 7 -2 9 -9 6 -14 -5 -7 -2 -8 5 -4 9 6
8 13 -6 28 -18 20 -18 21 7 14 l25 -7 -22 20 c-29 24 -29 29 2 53 14 11 23 24
20 29 -11 16 -25 10 -18 -8z"/>
<path d="M5291 3151 c-9 -6 -10 -11 -2 -15 6 -4 9 -11 6 -16 -3 -5 0 -12 6
-16 7 -4 9 -3 5 4 -3 5 -1 12 6 14 7 3 8 10 2 21 -6 10 -14 13 -23 8z"/>
<path d="M5266 3094 c10 -8 14 -13 9 -10 -6 2 -17 1 -24 -3 -10 -7 -9 -9 2
-14 9 -3 21 1 28 9 10 13 10 17 -2 25 -24 15 -34 10 -13 -7z"/>
<path d="M5071 3053 c0 -4 4 -17 8 -27 6 -15 9 -16 13 -5 3 8 -1 20 -8 27 -8
7 -14 9 -13 5z"/>
<path d="M5295 3051 c3 -5 1 -12 -5 -16 -5 -3 -10 -1 -10 6 0 8 -3 9 -13 0 -8
-6 -18 -7 -23 -3 -4 4 -2 -1 5 -10 15 -20 26 -24 15 -6 -5 8 -2 9 11 4 11 -4
22 -2 27 6 11 18 10 28 -3 28 -5 0 -8 -4 -4 -9z"/>
<path d="M5180 2980 c0 -5 -7 -10 -15 -10 -8 0 -15 -5 -15 -10 0 -7 6 -7 20 0
18 10 28 30 15 30 -3 0 -5 -4 -5 -10z"/>
<path d="M5125 2960 c-3 -5 -1 -10 4 -10 6 0 11 5 11 10 0 6 -2 10 -4 10 -3 0
-8 -4 -11 -10z"/>
<path d="M5059 2903 c-13 -15 -12 -15 9 -4 23 12 28 21 13 21 -5 0 -15 -7 -22
-17z"/>
<path d="M4985 2899 c-4 -6 -5 -12 -2 -15 2 -3 7 2 10 11 7 17 1 20 -8 4z"/>
<path d="M5006 2882 c-3 -5 1 -9 9 -9 8 0 12 4 9 9 -3 4 -7 8 -9 8 -2 0 -6 -4
-9 -8z"/>
<path d="M4926 2851 c-4 -5 -2 -12 4 -16 5 -3 10 0 10 7 0 10 3 9 11 -2 9 -12
10 -12 7 -1 -5 18 -24 25 -32 12z"/>
<path d="M5086 2824 c-5 -14 -4 -15 9 -4 17 14 19 20 6 20 -5 0 -12 -7 -15
-16z"/>
<path d="M5005 2809 c-4 -6 -5 -12 -2 -15 2 -3 7 2 10 11 7 17 1 20 -8 4z"/>
<path d="M4955 2801 c-3 -5 0 -13 6 -17 7 -4 9 -3 5 4 -3 6 2 13 11 15 16 4
16 5 1 6 -9 0 -19 -3 -23 -8z"/>
<path d="M5060 2791 c0 -6 4 -13 10 -16 6 -3 7 1 4 9 -7 18 -14 21 -14 7z"/>
<path d="M4956 2753 c-6 -14 -5 -15 5 -6 7 7 10 15 7 18 -3 3 -9 -2 -12 -12z"/>
<path d="M4980 2731 c0 -6 4 -13 10 -16 6 -3 7 1 4 9 -7 18 -14 21 -14 7z"/>
<path d="M4827 2699 c7 -7 15 -10 18 -7 3 3 -2 9 -12 12 -14 6 -15 5 -6 -5z"/>
<path d="M4803 2661 c4 -28 12 -34 14 -11 1 11 -2 22 -8 25 -5 4 -8 -3 -6 -14z"/>
<path d="M4842 2668 c-15 -15 -15 -28 0 -28 6 0 8 3 5 7 -4 3 -2 12 4 20 14
16 7 17 -9 1z"/>
<path d="M4766 2645 c-3 -8 -11 -12 -19 -9 -7 2 -22 -6 -33 -18 l-19 -23 22
18 c12 11 27 16 34 11 9 -5 8 -10 -5 -19 -14 -11 -15 -13 -1 -18 8 -4 14 -3
14 1 -3 19 2 23 15 13 11 -10 14 -9 12 3 -1 9 -5 18 -8 22 -4 3 -4 12 -1 20 3
8 3 14 0 14 -3 0 -7 -7 -11 -15z"/>
<path d="M4605 2590 l-29 -31 -17 22 c-16 22 -17 22 -27 2 -11 -20 -7 -33 9
-33 5 0 6 8 3 18 -5 14 -4 14 6 -2 10 -14 9 -20 -1 -28 -11 -7 -9 -8 6 -6 11
2 26 10 33 18 11 13 11 11 2 -8 -11 -23 -6 -42 10 -42 5 0 7 10 5 22 -6 29 23
88 40 82 8 -3 11 -12 8 -20 -3 -8 -9 -11 -14 -8 -5 3 -6 -3 -2 -12 5 -14 9
-12 21 11 12 23 12 29 0 36 -19 13 -22 12 -53 -21z"/>
<path d="M4681 2604 c0 -11 3 -14 6 -6 3 7 2 16 -1 19 -3 4 -6 -2 -5 -13z"/>
<path d="M9383 2515 c0 -22 2 -30 4 -17 2 12 2 30 0 40 -3 9 -5 -1 -4 -23z"/>
<path d="M4690 2515 c-7 -9 -11 -17 -9 -20 3 -2 10 5 17 15 14 24 10 26 -8 5z"/>
<path d="M4555 2509 c-11 -17 -13 -59 -4 -65 5 -3 9 -14 9 -25 0 -12 7 -19 20
-19 17 0 17 2 -7 28 -25 26 -25 27 -4 30 12 2 21 8 21 13 0 6 5 7 10 4 6 -3
10 -1 10 5 0 8 -7 9 -17 5 -10 -3 -20 -7 -23 -8 -3 -1 -6 3 -6 8 -1 6 2 9 7 8
4 -2 6 4 3 12 -7 18 -11 19 -19 4z"/>
<path d="M4643 2508 c3 -9 1 -18 -6 -21 -6 -2 -4 -6 5 -10 22 -8 29 15 10 33
-14 13 -15 12 -9 -2z"/>
<path d="M9372 2435 c0 -16 2 -22 5 -12 2 9 2 23 0 30 -3 6 -5 -1 -5 -18z"/>
<path d="M4474 2419 c-4 -7 -3 -9 4 -5 6 3 13 2 16 -3 9 -14 39 -7 44 10 2 9
0 10 -5 4 -9 -12 -23 -13 -40 -2 -6 4 -15 2 -19 -4z"/>
<path d="M9362 2375 c0 -16 2 -22 5 -12 2 9 2 23 0 30 -3 6 -5 -1 -5 -18z"/>
<path d="M4505 2369 c-4 -6 -5 -12 -2 -15 2 -3 7 2 10 11 7 17 1 20 -8 4z"/>
<path d="M4390 2330 c0 -5 5 -10 11 -10 5 0 7 5 4 10 -3 6 -8 10 -11 10 -2 0
-4 -4 -4 -10z"/>
<path d="M9352 2320 c0 -14 2 -19 5 -12 2 6 2 18 0 25 -3 6 -5 1 -5 -13z"/>
<path d="M4436 2322 c-3 -4 4 -9 15 -9 23 -2 25 3 4 10 -8 4 -16 3 -19 -1z"/>
<path d="M4320 2280 c0 -5 5 -10 10 -10 6 0 10 5 10 10 0 6 -4 10 -10 10 -5 0
-10 -4 -10 -10z"/>
<path d="M9331 2243 c-1 -6 -4 -20 -7 -30 -5 -17 -5 -17 6 0 6 10 9 23 6 30
-3 9 -5 9 -5 0z"/>
<path d="M4320 2215 c0 -8 4 -15 10 -15 5 0 7 7 4 15 -4 8 -8 15 -10 15 -2 0
-4 -7 -4 -15z"/>
<path d="M4157 2207 c-10 -25 -9 -27 7 -27 8 0 16 -3 19 -7 2 -5 2 -3 1 4 -2
7 1 15 6 18 6 4 10 12 10 18 0 7 -7 4 -14 -6 -14 -18 -14 -18 -18 0 -3 17 -4
17 -11 0z"/>
<path d="M4222 2207 c-7 -8 -9 -17 -5 -20 3 -4 1 -7 -5 -7 -17 0 -15 -30 3
-36 8 -4 13 -10 10 -14 -3 -5 4 -6 15 -3 11 3 20 10 21 17 0 6 2 22 5 36 3 18
2 21 -5 10 -5 -8 -7 -18 -5 -22 3 -4 -2 -8 -10 -8 -23 0 -28 18 -9 29 13 7 15
13 7 21 -8 8 -14 7 -22 -3z m22 -66 c-2 -3 -12 3 -22 13 -16 17 -16 18 5 5 12
-7 20 -15 17 -18z"/>
<path d="M4270 2139 c0 -5 5 -7 10 -4 6 3 10 8 10 11 0 2 -4 4 -10 4 -5 0 -10
-5 -10 -11z"/>
<path d="M4194 2088 c-15 -24 -12 -33 11 -33 20 0 22 3 13 20 -15 28 -15 28
-24 13z"/>
<path d="M4245 2089 c-11 -16 -1 -19 13 -3 7 8 8 14 3 14 -5 0 -13 -5 -16 -11z"/>
<path d="M4348 2083 c7 -3 16 -2 19 1 4 3 -2 6 -13 5 -11 0 -14 -3 -6 -6z"/>
<path d="M4145 2049 c-4 -6 -4 -13 -1 -16 3 -4 6 -1 6 6 0 7 5 9 12 5 7 -4 8
-3 4 4 -9 15 -13 15 -21 1z"/>
<path d="M9266 2045 c-9 -26 -7 -32 5 -12 6 10 9 21 6 23 -2 3 -7 -2 -11 -11z"/>
<path d="M4168 2013 c7 -3 16 -2 19 1 4 3 -2 6 -13 5 -11 0 -14 -3 -6 -6z"/>
<path d="M9246 1995 c-9 -26 -7 -32 5 -12 6 10 9 21 6 23 -2 3 -7 -2 -11 -11z"/>
<path d="M4175 1950 c3 -5 8 -10 11 -10 2 0 4 5 4 10 0 6 -5 10 -11 10 -5 0
-7 -4 -4 -10z"/>
<path d="M3991 1942 c-1 -7 -5 -10 -11 -7 -5 3 -10 0 -10 -9 0 -8 -3 -23 -6
-33 -3 -10 2 -6 11 10 17 28 31 37 22 13 -4 -9 -1 -13 6 -10 7 2 14 14 14 27
2 15 0 18 -6 8 -7 -11 -9 -11 -14 0 -4 11 -6 11 -6 1z"/>
<path d="M4034 1916 c1 -8 5 -18 8 -22 4 -3 5 1 4 10 -1 8 -5 18 -8 22 -4 3
-5 -1 -4 -10z"/>
<path d="M3834 1907 c-8 -8 -5 -21 8 -43 19 -32 48 -52 48 -33 0 6 5 7 12 3 7
-4 8 -3 4 4 -4 6 -14 8 -22 5 -9 -3 -20 0 -24 8 -10 15 6 39 26 39 8 0 14 4
14 9 0 5 -8 8 -17 6 -10 -1 -22 1 -28 5 -5 4 -15 3 -21 -3z"/>
<path d="M9197 1885 c-9 -19 -15 -35 -12 -35 7 0 37 61 33 66 -3 2 -12 -12
-21 -31z"/>
<path d="M3875 1870 c-3 -6 1 -7 9 -4 18 7 21 14 7 14 -6 0 -13 -4 -16 -10z"/>
<path d="M4083 1855 c0 -8 4 -12 9 -9 5 3 6 10 3 15 -9 13 -12 11 -12 -6z"/>
<path d="M3798 1855 c-3 -3 -2 -23 2 -45 4 -22 5 -42 2 -45 -12 -11 -21 -4
-17 15 2 11 -1 23 -7 26 -6 4 -8 2 -4 -4 3 -6 -2 -12 -11 -14 -16 -3 -15 -6 6
-27 16 -16 26 -20 29 -13 3 9 9 9 25 0 26 -14 27 -13 38 3 4 7 3 19 -3 26 -13
17 4 17 22 1 12 -11 12 -10 2 3 -6 9 -9 19 -5 23 4 4 -1 4 -11 0 -15 -6 -17
-4 -11 6 6 9 4 11 -4 6 -7 -5 -10 -10 -7 -13 7 -7 -12 -43 -23 -43 -11 0 -10
32 0 46 6 7 3 16 -6 24 -8 7 -12 16 -9 21 6 10 1 12 -8 4z"/>
<path d="M9166 1823 c-6 -14 -5 -15 5 -6 7 7 10 15 7 18 -3 3 -9 -2 -12 -12z"/>
<path d="M3915 1820 c-3 -6 1 -7 9 -4 18 7 21 14 7 14 -6 0 -13 -4 -16 -10z"/>
<path d="M3917 1749 c7 -7 15 -10 18 -7 3 3 -2 9 -12 12 -14 6 -15 5 -6 -5z"/>
<path d="M3876 1735 c-3 -8 -1 -15 4 -15 6 0 10 7 10 15 0 8 -2 15 -4 15 -2 0
-6 -7 -10 -15z"/>
<path d="M9083 1688 c-15 -20 -25 -38 -20 -38 3 0 12 11 21 25 17 26 16 35 -1
13z"/>
<path d="M3709 1634 c0 -5 -2 -17 -4 -26 -2 -10 1 -18 6 -18 5 0 9 8 10 18 0
14 2 14 9 -3 7 -15 9 -16 9 -4 1 17 -28 49 -30 33z"/>
<path d="M9039 1623 c-13 -16 -12 -17 4 -4 16 13 21 21 13 21 -2 0 -10 -8 -17
-17z"/>
<path d="M3670 1546 c0 -8 9 -16 19 -19 13 -3 18 -1 14 8 -7 19 -33 27 -33 11z"/>
<path d="M3665 1490 c21 -24 26 -25 19 -6 -3 8 -13 17 -22 21 -13 5 -13 2 3
-15z"/>
<path d="M3716 1493 c-6 -14 -5 -15 5 -6 7 7 10 15 7 18 -3 3 -9 -2 -12 -12z"/>
<path d="M8899 1453 l-34 -38 38 34 c34 33 42 41 34 41 -2 0 -19 -17 -38 -37z"/>
<path d="M3567 1441 c-3 -11 1 -22 8 -24 8 -4 10 3 7 19 -5 29 -8 30 -15 5z"/>
<path d="M3627 1440 c-9 -11 -13 -20 -7 -20 5 0 14 9 20 20 6 11 9 20 8 20 -2
0 -11 -9 -21 -20z"/>
<path d="M3625 1400 c3 -5 8 -10 11 -10 2 0 4 5 4 10 0 6 -5 10 -11 10 -5 0
-7 -4 -4 -10z"/>
<path d="M3549 1361 c-20 -17 -21 -19 -5 -17 10 1 22 10 28 19 12 22 6 21 -23
-2z"/>
<path d="M8774 1328 l-29 -33 33 29 c17 17 32 31 32 33 0 8 -8 1 -36 -29z"/>
<path d="M3403 1315 c0 -7 8 -10 19 -7 10 2 18 6 18 7 0 1 -8 5 -18 7 -11 3
-19 0 -19 -7z"/>
<path d="M3510 1320 c-8 -5 -10 -10 -5 -10 6 0 17 5 25 10 8 5 11 10 5 10 -5
0 -17 -5 -25 -10z"/>
<path d="M3460 1235 c-7 -9 -19 -14 -27 -11 -7 3 -13 1 -13 -4 0 -5 11 -9 25
-8 13 1 22 4 20 7 -3 2 0 10 6 18 6 7 9 13 6 13 -2 0 -10 -7 -17 -15z"/>
<path d="M3351 1117 c-8 -10 -7 -14 2 -14 8 0 14 6 14 14 0 7 -1 13 -2 13 -2
0 -8 -6 -14 -13z"/>
<path d="M3315 1091 c-3 -5 -2 -12 3 -15 5 -3 9 1 9 9 0 17 -3 19 -12 6z"/>
<path d="M3235 1011 c-3 -5 -1 -12 5 -16 5 -3 10 1 10 9 0 18 -6 21 -15 7z"/>
<path d="M3165 990 c-3 -5 -2 -10 4 -10 5 0 13 5 16 10 3 6 2 10 -4 10 -5 0
-13 -4 -16 -10z"/>
<path d="M8215 975 c-25 -12 -26 -14 -5 -9 14 4 29 10 35 15 12 12 5 11 -30
-6z"/>
<path d="M8120 940 c-18 -12 -2 -12 25 0 13 6 15 9 5 9 -8 0 -22 -4 -30 -9z"/>
<path d="M8060 920 c-9 -6 -10 -10 -3 -10 6 0 15 5 18 10 8 12 4 12 -15 0z"/>
<path d="M7985 900 c-13 -5 -14 -9 -5 -9 8 0 24 4 35 9 13 5 14 9 5 9 -8 0
-24 -4 -35 -9z"/>
<path d="M7888 873 c7 -3 16 -2 19 1 4 3 -2 6 -13 5 -11 0 -14 -3 -6 -6z"/>
<path d="M3000 860 c0 -5 7 -7 15 -4 8 4 15 8 15 10 0 2 -7 4 -15 4 -8 0 -15
-4 -15 -10z"/>
<path d="M7833 863 c9 -2 23 -2 30 0 6 3 -1 5 -18 5 -16 0 -22 -2 -12 -5z"/>
<path d="M7768 853 c6 -2 18 -2 25 0 6 3 1 5 -13 5 -14 0 -19 -2 -12 -5z"/>
<path d="M7673 843 c15 -2 37 -2 50 0 12 2 0 4 -28 4 -27 0 -38 -2 -22 -4z"/>
<path d="M6928 833 c6 -2 18 -2 25 0 6 3 1 5 -13 5 -14 0 -19 -2 -12 -5z"/>
<path d="M7053 833 c9 -2 25 -2 35 0 9 3 1 5 -18 5 -19 0 -27 -2 -17 -5z"/>
<path d="M7203 833 c9 -2 23 -2 30 0 6 3 -1 5 -18 5 -16 0 -22 -2 -12 -5z"/>
<path d="M7258 833 c7 -3 16 -2 19 1 4 3 -2 6 -13 5 -11 0 -14 -3 -6 -6z"/>
<path d="M7428 833 c6 -2 18 -2 25 0 6 3 1 5 -13 5 -14 0 -19 -2 -12 -5z"/>
<path d="M7513 833 c20 -2 54 -2 75 0 20 2 3 4 -38 4 -41 0 -58 -2 -37 -4z"/>
</g>
</svg>
